M48
;Layer_Color=9474304
;FILE_FORMAT=4:4
METRIC
;TYPE=PLATED
T01F00S00C0.3000
T02F00S00C0.8000
T03F00S00C1.0000
T05F00S00C1.5000
T06F00S00C1.8000
T07F00S00C3.2000
%
T01
X02083000Y00752000
X02265850Y01023450
X02265350Y01036650
Y01049350
Y01074750
Y01087450
X02328000Y01113000
X02375350Y01036650
X02364564Y00998637
X02412250Y01011250
X02386550Y01087450
X02517000Y01312000
T02
X02420000Y00784000
X02370000
X01426000Y00792000
Y00690000
X01366500Y00872500
Y00902500
X01320000Y00940000
X01270000
X01264500Y00902500
Y00872500
X01305000Y00992500
Y01042500
Y01100000
Y01150000
X01368000Y01162000
Y01132000
Y01102000
Y01072000
X01382000Y01039000
Y00989000
X01475500
X01508000Y00985000
Y01014000
Y01043000
Y01072000
X01470000
Y01102000
Y01132000
Y01162000
X01503000Y01138000
X01549000
Y01188000
X01503000
X01475500Y01039000
X01610000Y01043000
Y01014000
Y00985000
Y01072000
X01595000Y01138000
Y01188000
X01754000Y01151000
X01796000Y01131000
X01866000
X01899000Y01139000
X02059000Y01126000
Y01097000
Y01068000
Y01039000
Y01010000
Y00981000
Y00952000
Y00922000
X02161000
Y00952000
Y00981000
Y01010000
Y01039000
Y01068000
Y01097000
Y01126000
X02197000Y01147000
Y01097000
X02293000Y00967000
X02343000
X02326000Y00909000
Y00880000
Y00851000
Y00822000
X02233000Y00823000
X02183000
X02428000Y00822000
Y00851000
Y00880000
Y00909000
X02499000Y01026000
Y01076000
X02536000Y01100000
X02565000
X02594000
X02593000Y01146000
X02565000Y01183000
X02515000
X02491000Y01146000
X02536000Y00998000
X02565000
X02594000
X02701500Y01007500
Y01037500
X02702500Y00975800
Y00950400
Y00925000
Y00899600
X02717500Y00860000
X02767500
X02782500Y00899600
Y00925000
Y00950400
Y00975800
X02807500Y00982000
X02803500Y01007500
Y01037500
X02837500Y00982000
X02894000Y00987000
X02944000
X02948000Y01020000
X02910000Y01029000
Y01079000
X02977000Y01075000
X02948000Y01122000
X02967000Y01151000
Y01186000
X02902000Y01151000
X02865000Y01172600
X02815000
X02802000Y01132000
X02852000
X03020000Y01125000
X03070000
Y01017500
X03020000
X02977000Y00973000
X02837500Y00880000
X02807500
X02815000Y01198000
Y01223400
X02865000
Y01198000
X02902000Y01221000
X02895000Y01255000
X02922000Y01263000
X02972000
X02967000Y01221000
X03020000Y01232500
X03070000
Y01340000
X03020000
X02793000Y01255000
X02770000Y01300000
X02741000
Y01198000
X02770000
X02593000Y01221000
Y01250000
X02491000
Y01221000
X02268000Y01430600
Y01456000
Y01481400
X02228000
Y01456000
Y01430600
X02140000Y01430000
X02090000
X02050000
X02000000
X02218000Y01516000
Y01566000
X02278000
Y01516000
X01880000Y01447000
X01851000
X01828000Y01437000
X01787000Y01404000
X01740000
X01698000Y01399000
X01698400Y01357000
X01673000
X01647600
X01648000Y01399000
X01606000Y01404000
X01605000Y01437000
Y01466000
Y01495000
Y01524000
X01707000
Y01495000
Y01466000
Y01437000
X01726000
X01740000Y01354000
X01787000
Y01317000
X01829000Y01318400
Y01293000
Y01267600
X01787000Y01267000
X01773000Y01234000
X01739000Y01235000
Y01264000
X01754000Y01201000
X01796000Y01196000
X01831000
X01866000
X01875000Y01234000
X01899000Y01241000
X01879000Y01267600
Y01293000
Y01318400
X01880000Y01345000
X01851000
X01698000Y01302000
X01648000
X01637000Y01264000
Y01235000
X01606000Y01354000
X01575000Y01318000
X01537000Y01309000
Y01344000
Y01379000
X01542000Y01421000
X01492000
X01472000Y01379000
Y01309000
X01492000Y01273800
Y01248400
Y01223000
X01444400Y01225000
X01419000
X01393600
X01368000Y01192000
X01305000Y01207500
Y01257500
Y01315000
Y01365000
X01542000Y01273800
Y01248400
Y01223000
X01575000Y01216000
X01470000Y01192000
T03
X01786100Y00775000
X01811500
X01836900
X01862300
X01887700
X01913100
X01938500
X01963900
X01525400Y00690000
X01474600
X02142000Y01265500
Y01340500
X02121000Y01470000
Y01505000
X02075400Y01534980
X02050000
X02024600
X02019000Y01505000
Y01470000
X02024600Y01585000
X02075400
X02347000Y01340500
Y01265500
T05
X02808500Y00672000
Y00735000
X02971500
Y00672000
Y00798000
X02808500
X02671500Y01451500
Y01514500
Y01577500
X02508500
Y01514500
Y01451500
T06
X02575000Y00665000
X02625000
X02675000
X02375000
X02325000
X02275000
X02075000
X02025000
X01975000
X01775000
X01725000
X01675000
T07
X03050000Y00675000
X01300000
X03050000Y01425000
Y01575000
X01300000
Y01425000
M30
