G04*
G04 #@! TF.GenerationSoftware,Altium Limited,Altium Designer,24.4.1 (13)*
G04*
G04 Layer_Physical_Order=1*
G04 Layer_Color=255*
%FSLAX44Y44*%
%MOMM*%
G71*
G04*
G04 #@! TF.SameCoordinates,B5B0D8E5-B161-4E7D-91E4-E0B691D99E8F*
G04*
G04*
G04 #@! TF.FilePolarity,Positive*
G04*
G01*
G75*
%ADD13C,0.5000*%
%ADD22R,1.8000X0.7000*%
%ADD37C,1.0000*%
%ADD38R,1.6000X1.6000*%
%ADD39C,1.6000*%
%ADD40C,1.5000*%
%ADD41C,1.2000*%
%ADD42O,5.0000X2.5000*%
%ADD43O,4.5000X2.2500*%
%ADD44O,2.2500X4.5000*%
%ADD45C,2.2500*%
%ADD46C,5.5000*%
%ADD47R,1.2000X1.2000*%
%ADD48C,3.0000*%
%ADD49C,5.0000*%
%ADD50C,0.6000*%
D13*
X1015850Y398450D02*
X1040000D01*
X750000Y642000D02*
X890500D01*
X892000Y640500D01*
Y577000D02*
X947000Y522000D01*
X892000Y577000D02*
Y640500D01*
X947000Y522000D02*
X960000Y509000D01*
Y371000D02*
Y509000D01*
Y371000D02*
X975000Y356000D01*
X1056000D01*
X1061000Y361000D02*
Y391000D01*
X1056000Y356000D02*
X1061000Y361000D01*
X1039500Y398950D02*
X1040500Y397950D01*
X1054050D01*
X1061000Y391000D01*
X1066000Y342000D02*
X1076000Y352000D01*
Y417707D01*
X1043000Y342000D02*
X1066000D01*
X1109000Y230000D02*
Y255000D01*
Y230000D02*
X1124000Y215000D01*
X1167000D01*
X1076000Y255000D02*
X1109000D01*
X1155000Y261000D02*
X1178000Y284000D01*
X1155000Y249000D02*
Y261000D01*
Y249000D02*
X1178000Y226000D01*
X1167000Y215000D02*
X1178000Y226000D01*
X1109000Y255000D02*
Y326000D01*
X1093000Y342000D02*
X1109000Y326000D01*
X1218000Y401000D02*
X1249000D01*
X1178000Y361000D02*
X1218000Y401000D01*
X1178000Y284000D02*
Y361000D01*
X1425000Y40000D02*
X1458000Y73000D01*
X1532500D01*
X1558500Y47000D01*
X1721500D01*
X1698000Y497000D02*
Y612000D01*
X1672000Y638000D02*
X1698000Y612000D01*
X1520000Y675000D02*
X1657000D01*
X1672000Y638000D02*
Y660000D01*
X1657000Y675000D02*
X1672000Y660000D01*
X1421500Y889500D02*
X1474500D01*
X1520000Y844000D01*
Y675000D02*
Y844000D01*
X1258500Y889500D02*
X1421500D01*
X1258500D02*
Y952500D01*
X1421500Y889500D02*
Y952500D01*
X1258000Y953000D02*
X1258500Y952500D01*
X1189000Y953000D02*
X1258000D01*
X1028000Y941000D02*
X1177000D01*
X1189000Y953000D01*
X978000Y831000D02*
X998015Y851015D01*
Y912000D01*
X997000D02*
X999000D01*
X1028000Y941000D01*
X968000D02*
X997000Y912000D01*
X1017206Y806394D02*
X1018000Y805600D01*
X1002606Y806394D02*
X1017206D01*
X978000Y831000D02*
X1002606Y806394D01*
X916000Y831000D02*
X978000D01*
X890000Y805000D02*
X916000Y831000D01*
X774000Y805000D02*
X785500Y816500D01*
X878500D01*
X890000Y805000D01*
X750000D02*
X774000D01*
X892000Y640500D02*
X1097000D01*
X500000Y23000D02*
Y113900D01*
X496500Y19500D02*
X500000Y23000D01*
Y113900D02*
X536100Y150000D01*
X425000Y40000D02*
X445500Y19500D01*
X496500D01*
X559000Y823000D02*
X569500Y833500D01*
X618500D01*
X630000Y822000D01*
X559000Y734000D02*
Y823000D01*
Y734000D02*
X573000Y720000D01*
X601000D01*
X647000Y805000D02*
X750000D01*
X630000Y822000D02*
X647000Y805000D01*
X750000D02*
Y891000D01*
X721000Y920000D02*
X750000Y891000D01*
X673500Y920000D02*
X721000D01*
X478000D02*
X673500D01*
X457000Y899000D02*
X478000Y920000D01*
X655000Y547000D02*
X750000Y642000D01*
Y805000D01*
X604000Y547000D02*
X655000D01*
X583000Y526000D02*
X604000Y547000D01*
X536100Y442100D02*
X583000Y489000D01*
Y526000D01*
X536100Y150000D02*
Y442100D01*
X520000Y498000D02*
Y545000D01*
X512000Y553000D02*
X520000Y545000D01*
X428000Y568000D02*
Y629000D01*
X387000Y639000D02*
X418000D01*
X428000Y568000D02*
X443000Y553000D01*
X418000Y639000D02*
X428000Y629000D01*
X443000Y553000D02*
X512000D01*
X345000Y563000D02*
X392000D01*
X429000Y526000D02*
X504000D01*
X392000Y563000D02*
X429000Y526000D01*
X475000Y453000D02*
X520000Y498000D01*
X475000Y40000D02*
Y453000D01*
X352610Y610000D02*
X387000D01*
X327000Y569000D02*
X341500Y583500D01*
Y598890D02*
X352610Y610000D01*
X341500Y583500D02*
Y598890D01*
X360000Y447000D02*
Y520000D01*
X327000Y553000D02*
Y569000D01*
Y553000D02*
X360000Y520000D01*
X299000Y563000D02*
Y580000D01*
X310000Y591000D02*
X325000D01*
X299000Y580000D02*
X310000Y591000D01*
X208000Y549000D02*
X220000Y537000D01*
X197000Y623000D02*
X208000Y612000D01*
Y549000D02*
Y612000D01*
X128000Y623000D02*
X197000D01*
X118000Y567000D02*
Y613000D01*
X128000Y623000D01*
X411000Y398000D02*
X425000Y384000D01*
X369000Y398000D02*
X411000D01*
X425000Y40000D02*
Y384000D01*
X360000Y389000D02*
X369000Y398000D01*
X360000Y389000D02*
X376000Y373000D01*
Y343000D02*
Y373000D01*
X363000Y330000D02*
X376000Y343000D01*
X241000Y330000D02*
X363000D01*
X225500Y345500D02*
Y364000D01*
Y345500D02*
X241000Y330000D01*
X725000Y40000D02*
X751000Y14000D01*
X999000D02*
X1025000Y40000D01*
X751000Y14000D02*
X999000D01*
X314000Y65000D02*
X339000Y40000D01*
X425000D01*
X275400Y65000D02*
X314000D01*
X969000Y402991D02*
Y563000D01*
X1018000Y612000D02*
X1228000D01*
X969000Y563000D02*
X1018000Y612000D01*
X1027000Y596000D02*
X1241000D01*
X989000Y409000D02*
Y558000D01*
X1027000Y596000D01*
X1267000Y595000D02*
Y687000D01*
X1251000Y579000D02*
X1267000Y595000D01*
X1040000Y579000D02*
X1251000D01*
X1001000Y540000D02*
X1040000Y579000D01*
X1001000Y439979D02*
X1003929Y437050D01*
X1001000Y439979D02*
Y540000D01*
X1003929Y437050D02*
X1015350D01*
X989000Y409000D02*
X1011750Y386250D01*
X969000Y402991D02*
X998441Y373550D01*
X1602600Y560000D02*
X1615000Y547600D01*
X1527488Y560000D02*
X1602600D01*
X1488488Y521000D02*
X1527488Y560000D01*
X1343000Y521000D02*
X1488488D01*
X1502000Y325000D02*
X1532100D01*
X1492000Y315000D02*
X1502000Y325000D01*
X1492000Y195000D02*
Y315000D01*
X1532100Y325000D02*
X1532500Y325400D01*
X1473000Y176000D02*
X1492000Y195000D01*
X1366000Y176000D02*
X1473000D01*
X1325000Y135000D02*
X1366000Y176000D01*
X1325000Y40000D02*
Y135000D01*
X293813Y749893D02*
X294107D01*
X342000Y702000D01*
Y648000D02*
Y702000D01*
X287000Y754000D02*
X289706D01*
X293813Y749893D01*
X332000Y731000D02*
X386000Y677000D01*
X398000D01*
X332000Y731000D02*
Y789000D01*
X292000Y598000D02*
X342000Y648000D01*
X292000Y782351D02*
Y841000D01*
X287000Y754000D02*
Y777351D01*
X292000Y782351D01*
X356000Y779000D02*
X376000Y799000D01*
Y843000D01*
X363000Y856000D02*
X376000Y843000D01*
X292000Y841000D02*
X307000Y856000D01*
X363000D01*
X573500Y656500D02*
X592100D01*
X560000Y643000D02*
X573500Y656500D01*
X592100D02*
X629000Y693400D01*
X560000Y585000D02*
Y643000D01*
X546000Y571000D02*
X560000Y585000D01*
X1491000Y675000D02*
Y712000D01*
X1455000Y748000D02*
X1491000Y712000D01*
X1286000Y748000D02*
X1455000D01*
X1018000Y881000D02*
X1028000Y891000D01*
X1018000Y856400D02*
Y881000D01*
X1028000Y891000D02*
X1113000D01*
X1156000Y848000D01*
Y775000D02*
Y848000D01*
Y775000D02*
X1172000Y759000D01*
X1275000D01*
X1286000Y519000D02*
Y748000D01*
X1275000Y759000D02*
X1286000Y748000D01*
X1255000Y488000D02*
X1286000Y519000D01*
X1078000Y488000D02*
X1255000D01*
X1078000Y442000D02*
Y488000D01*
Y442000D02*
X1081950Y438050D01*
X1094500D02*
X1095500Y437050D01*
X1081950Y438050D02*
X1094500D01*
X649000Y514000D02*
X719000D01*
X768000Y465000D01*
Y356000D02*
Y465000D01*
X852000Y391000D02*
X875000Y414000D01*
X911000D01*
X852000Y356000D02*
Y391000D01*
Y356000D02*
X863000Y345000D01*
X876000Y297000D02*
X911000D01*
X863000Y310000D02*
Y345000D01*
Y310000D02*
X876000Y297000D01*
X809000Y356000D02*
X852000D01*
X748000Y336000D02*
X768000Y356000D01*
X809000D01*
X748000Y181000D02*
X763000Y166000D01*
X748000Y181000D02*
Y336000D01*
X763000Y166000D02*
X826000D01*
X850000Y142000D01*
Y65000D02*
Y142000D01*
X825000Y40000D02*
X850000Y65000D01*
X637700Y76700D02*
X788300D01*
X825000Y40000D01*
X525000D02*
X601000D01*
X637700Y76700D02*
Y150000D01*
X601000Y40000D02*
X637700Y76700D01*
X360000Y418000D02*
Y447000D01*
X344000Y376000D02*
Y404000D01*
Y376000D02*
X360000Y360000D01*
X344000Y404000D02*
X354500Y414500D01*
X358106Y418000D02*
X360000D01*
X354606Y414500D02*
X358106Y418000D01*
X354500Y414500D02*
X354606D01*
X713000Y127000D02*
X833000D01*
X690000Y150000D02*
X713000Y127000D01*
X688500Y150000D02*
X690000D01*
X863000Y119000D02*
X876000Y106000D01*
X1058000D01*
X863000Y119000D02*
Y159000D01*
X775000Y190000D02*
Y314000D01*
Y190000D02*
X782000Y183000D01*
X839000D01*
X863000Y159000D01*
X1015350Y437050D02*
X1039500D01*
X1015350Y462450D02*
X1039500D01*
X1015350Y449750D02*
X1039500D01*
X1095500Y386250D02*
X1162250D01*
X1043000Y342000D02*
X1043000Y342000D01*
X998441Y373550D02*
X1039500D01*
X1011750Y386250D02*
X1039500D01*
X1095500Y373550D02*
X1095544Y373594D01*
X1114520D01*
X1114564Y373637D01*
X1015350Y411650D02*
X1039500D01*
X1015350Y424350D02*
X1039500D01*
X1095500Y462450D02*
X1136550D01*
X1095500Y449750D02*
X1140250D01*
X1145000Y445000D01*
Y430000D02*
Y445000D01*
X1095500Y411650D02*
X1125350D01*
X1043000Y295000D02*
Y342000D01*
Y295000D02*
X1054000Y284000D01*
X1076000D01*
X793000Y456000D02*
X809000Y472000D01*
X793000Y430000D02*
X809000Y414000D01*
X793000Y430000D02*
Y456000D01*
X868000Y492000D02*
X877000Y501000D01*
X911000D01*
X868000Y451000D02*
Y492000D01*
X860000Y443000D02*
X868000Y451000D01*
X809000Y443000D02*
X860000D01*
X911000D02*
Y472000D01*
X947000D01*
X911000Y327000D02*
Y356000D01*
X1095500Y424350D02*
X1139350D01*
X1145000Y430000D01*
X1076000Y417707D02*
X1082518Y424225D01*
X1095376D02*
X1095500Y424350D01*
X1082518Y424225D02*
X1095376D01*
X983000Y198000D02*
X983500Y197500D01*
X1075500D01*
X1076000Y197000D01*
X809000Y230000D02*
X841000Y198000D01*
X933000D01*
X809000Y230000D02*
Y297000D01*
X775000Y314000D02*
X788000Y327000D01*
X809000D01*
X1075000Y40000D02*
Y89000D01*
X1058000Y106000D02*
X1075000Y89000D01*
X1228000Y612000D02*
X1241000Y625000D01*
X1039500Y411650D02*
X1056650D01*
X1067000Y422000D01*
Y495000D01*
X1093000Y521000D02*
X1241000D01*
X1067000Y495000D02*
X1093000Y521000D01*
X1264500Y529500D02*
Y557500D01*
X1256000Y521000D02*
X1264500Y529500D01*
X1241000Y521000D02*
X1256000D01*
X1264500Y557500D02*
X1265000Y558000D01*
X177000Y364000D02*
X202000Y389000D01*
X258000D01*
X269500Y429500D02*
Y621300D01*
X242000Y648800D02*
X269500Y621300D01*
X279000Y533000D02*
X299000Y513000D01*
X279000Y610400D02*
X292000Y623400D01*
X279000Y533000D02*
Y610400D01*
X242000Y648800D02*
X253200Y660000D01*
X280800D02*
X292000Y648800D01*
X253200Y660000D02*
X280800D01*
X258000Y418000D02*
X269500Y429500D01*
X176000Y65000D02*
X224600D01*
X1558500Y110000D02*
X1721500D01*
X1558500Y173000D02*
X1721500D01*
X1539000Y427000D02*
X1553500Y412500D01*
X1429000Y427000D02*
X1539000D01*
X1418000Y416000D02*
X1429000Y427000D01*
X1418000Y357000D02*
Y416000D01*
X1398000Y337000D02*
X1418000Y357000D01*
X1260000Y337000D02*
X1398000D01*
X1178000Y255000D02*
X1260000Y337000D01*
X1467500Y235000D02*
Y310400D01*
X1178000Y255000D02*
X1199000Y234000D01*
Y203000D02*
Y234000D01*
X1193000Y197000D02*
X1199000Y203000D01*
X1178000Y197000D02*
X1193000D01*
X1130000D02*
X1178000D01*
X1120000Y187000D02*
X1130000Y197000D01*
X1120000Y159000D02*
Y187000D01*
X1432000Y363000D02*
X1451500Y382500D01*
X1432000Y345900D02*
Y363000D01*
X1451500Y382500D02*
Y412500D01*
X1432000Y345900D02*
X1452500Y325400D01*
X1553500Y371458D02*
Y382500D01*
Y371458D02*
X1557500Y367458D01*
Y357000D02*
Y367458D01*
Y357000D02*
X1560000D01*
X1587500D01*
X1532500Y300000D02*
X1557500Y325000D01*
Y357000D01*
X1517500Y285000D02*
X1532500Y300000D01*
X1517500Y235000D02*
Y285000D01*
X1452500Y325400D02*
X1467500Y310400D01*
X1208000Y451000D02*
X1249000D01*
X1155950Y398950D02*
X1208000Y451000D01*
X1095500Y398950D02*
X1155950D01*
X1249000Y466000D02*
X1258000Y475000D01*
X1286000D01*
X1249000Y451000D02*
Y466000D01*
X1286000Y475000D02*
X1315000D01*
X1644000Y362000D02*
Y434000D01*
X1633000Y445000D02*
X1644000Y434000D01*
X1415000Y445000D02*
X1633000D01*
X1403000Y433000D02*
X1415000Y445000D01*
X1403000Y390000D02*
Y433000D01*
X1386000Y373000D02*
X1403000Y390000D01*
X1344000Y373000D02*
X1386000D01*
X1295000Y396000D02*
X1337000D01*
X1344000Y373000D02*
Y389000D01*
X1337000Y396000D02*
X1344000Y389000D01*
X1286000Y373000D02*
Y387000D01*
X1295000Y396000D01*
X1717000Y524787D02*
X1727000Y514787D01*
X1717000Y524787D02*
Y526000D01*
X1727000Y450000D02*
Y514787D01*
X1660000Y379000D02*
X1677000Y362000D01*
X1660000Y379000D02*
Y404000D01*
X1677000Y362000D02*
X1694000D01*
X1713000D01*
X1680000Y424000D02*
Y460000D01*
X1660000Y404000D02*
X1680000Y424000D01*
X1662000Y478000D02*
X1680000Y460000D01*
X1552000Y507000D02*
X1581000Y478000D01*
X1662000D01*
X1565000Y520000D02*
Y547600D01*
X1552000Y507000D02*
X1565000Y520000D01*
X1498400Y598400D02*
X1565000D01*
X1491000Y591000D02*
X1498400Y598400D01*
X1491000Y573000D02*
Y591000D01*
X1520000Y573000D02*
X1565000D01*
X1632000Y590000D02*
Y617000D01*
X1645000Y630000D01*
X1615000Y573000D02*
X1632000Y590000D01*
X1659000Y564000D02*
X1677000Y546000D01*
X1616092Y573000D02*
X1625092Y564000D01*
X1659000D01*
X1615000Y573000D02*
X1616092D01*
X1565000Y598400D02*
X1615000D01*
X1677000Y481732D02*
Y546000D01*
Y481732D02*
X1698000Y460732D01*
Y395000D02*
Y460732D01*
X1713000Y362000D02*
X1727000Y348000D01*
X1775500D02*
X1820000Y392500D01*
X1727000Y348000D02*
X1775500D01*
X1770000Y392500D02*
Y500000D01*
X1820000D02*
Y607500D01*
X1770000D02*
Y715000D01*
X1800000Y735000D02*
Y800000D01*
Y735000D02*
X1820000Y715000D01*
X629100Y642500D02*
X642500D01*
X629000Y642600D02*
X629100Y642500D01*
X642500D02*
X649000Y636000D01*
Y616000D02*
Y636000D01*
X579000Y642600D02*
X629000D01*
X578000Y812000D02*
X586661Y820661D01*
X599661D01*
X578000Y770000D02*
Y813894D01*
X599661Y820661D02*
X601000Y822000D01*
X578000Y770000D02*
X602000Y746000D01*
X641000D02*
X649000Y738000D01*
X602000Y746000D02*
X641000D01*
X629000Y668000D02*
X649000Y688000D01*
Y738000D01*
X579000Y668000D02*
Y669000D01*
X630000Y720000D01*
X616000Y598908D02*
X625000Y607908D01*
Y609000D01*
X616000Y571000D02*
Y598908D01*
X523000Y609000D02*
Y678000D01*
X537000Y692000D01*
X537000Y692000D02*
X552000D01*
X537000Y692000D02*
X537000Y692000D01*
X553400Y693400D02*
X579000D01*
X552000Y692000D02*
X553400Y693400D01*
X537000Y692000D02*
Y729000D01*
X470000Y730000D02*
X489000D01*
X490000Y729000D01*
X448400Y732000D02*
X468000D01*
X470000Y730000D01*
X490000Y729000D02*
X537000D01*
X448200Y677200D02*
Y731800D01*
X448400Y732000D01*
X448000Y677000D02*
X448200Y677200D01*
X489000Y610000D02*
Y639000D01*
X441000D02*
X489000D01*
X418000Y662000D02*
X441000Y639000D01*
X397600Y732000D02*
X418000Y711600D01*
Y662000D02*
Y711600D01*
X476000Y812000D02*
X490000Y798000D01*
Y779000D02*
Y798000D01*
X457000Y784092D02*
Y812000D01*
X448000Y774000D02*
Y775092D01*
X457000Y784092D01*
X423000Y830000D02*
X434000Y841000D01*
X457000D01*
X423000Y732000D02*
Y830000D01*
X407000Y870000D02*
X420000Y857000D01*
X462000D01*
X470000Y849000D01*
Y825000D02*
Y849000D01*
X457000Y812000D02*
X470000Y825000D01*
X398000Y732400D02*
Y774000D01*
X397600Y732000D02*
X398000Y732400D01*
X377000Y732000D02*
X396600D01*
X356000Y729000D02*
X374000D01*
X377000Y732000D01*
X332000Y789000D02*
X355000Y812000D01*
Y841000D01*
Y870000D02*
X407000D01*
X355000D02*
Y899000D01*
X310000Y693000D02*
X325000D01*
X302000Y685000D02*
X310000Y693000D01*
X288000Y685000D02*
X302000D01*
X287000Y684000D02*
X288000Y685000D01*
X299000Y513000D02*
X345000D01*
X232339Y508339D02*
X237000Y513000D01*
X253000D01*
X220000Y507000D02*
X221339Y508339D01*
X232339D01*
X220000Y477000D02*
Y507000D01*
X258000Y360000D02*
Y389000D01*
X132000Y364000D02*
X177000D01*
X220000Y447000D02*
X258000D01*
X194400Y451600D02*
Y600000D01*
X199000Y447000D02*
X220000D01*
X194400Y451600D02*
X199000Y447000D01*
X226000Y414500D02*
Y428000D01*
X225500Y414000D02*
X226000Y414500D01*
X220000Y447000D02*
X220500Y446500D01*
Y433500D02*
Y446500D01*
Y433500D02*
X226000Y428000D01*
X132000Y414000D02*
X225500D01*
X118000Y477000D02*
X169000Y528000D01*
Y600000D01*
X96000Y388000D02*
Y485000D01*
X118000Y507000D01*
X96000Y388000D02*
X118661Y365339D01*
X130661D02*
X132000Y364000D01*
X118661Y365339D02*
X130661D01*
X220000Y567000D02*
Y618000D01*
X225400Y623400D02*
X242000D01*
X220000Y618000D02*
X225400Y623400D01*
X81000Y413000D02*
Y515000D01*
X102500Y536500D02*
X117500D01*
X81000Y515000D02*
X102500Y536500D01*
X117500D02*
X118000Y537000D01*
X55000Y387000D02*
X81000Y413000D01*
X55000Y367500D02*
Y387000D01*
X14500Y247500D02*
Y277500D01*
X19000Y314000D02*
X20000Y315000D01*
X19000Y299000D02*
Y314000D01*
X14500Y277500D02*
Y294500D01*
X19000Y299000D01*
X48500Y277500D02*
X116500D01*
X35000Y291000D02*
Y397500D01*
Y291000D02*
X48500Y277500D01*
X35000Y397500D02*
X55000Y417500D01*
Y330000D02*
X70000Y315000D01*
X55000Y330000D02*
Y367500D01*
Y417500D02*
Y475000D01*
Y525000D02*
Y582500D01*
Y632500D02*
Y690000D01*
Y740000D02*
Y758000D01*
X50000Y763000D02*
X55000Y758000D01*
X50000Y763000D02*
Y800000D01*
D22*
X1039500Y411650D02*
D03*
X1095500D02*
D03*
X1039500Y398950D02*
D03*
X1095500D02*
D03*
X1039500Y373550D02*
D03*
X1095500D02*
D03*
X1039500Y386250D02*
D03*
X1095500D02*
D03*
X1039500Y437050D02*
D03*
X1095500D02*
D03*
X1039500Y424350D02*
D03*
X1095500D02*
D03*
X1039500Y462450D02*
D03*
X1095500D02*
D03*
X1039500Y449750D02*
D03*
X1095500D02*
D03*
D37*
X1018000Y831000D02*
X1064000D01*
X1097000Y798000D01*
Y715500D02*
Y798000D01*
X840000Y701000D02*
Y805000D01*
X851000Y690000D02*
X1071500D01*
X1097000Y715500D01*
X840000Y701000D02*
X851000Y690000D01*
D38*
X536100Y150000D02*
D03*
D39*
X561500D02*
D03*
X586900D02*
D03*
X612300D02*
D03*
X637700D02*
D03*
X663100D02*
D03*
X688500D02*
D03*
X713900D02*
D03*
D40*
X1717000Y561000D02*
D03*
Y596000D02*
D03*
Y526000D02*
D03*
X1652000Y596000D02*
D03*
Y526000D02*
D03*
X287000Y719000D02*
D03*
Y754000D02*
D03*
Y684000D02*
D03*
X222000Y754000D02*
D03*
Y684000D02*
D03*
X581000Y571000D02*
D03*
X546000D02*
D03*
X616000D02*
D03*
X546000Y506000D02*
D03*
X616000D02*
D03*
X825400Y960000D02*
D03*
X774600D02*
D03*
X825400Y909980D02*
D03*
X774600D02*
D03*
X800000D02*
D03*
X871000Y880000D02*
D03*
X769000D02*
D03*
Y845000D02*
D03*
X871000D02*
D03*
X892000Y640500D02*
D03*
Y715500D02*
D03*
X1097000D02*
D03*
Y640500D02*
D03*
X1770000Y715000D02*
D03*
X1820000D02*
D03*
Y607500D02*
D03*
X1770000D02*
D03*
X1820000Y500000D02*
D03*
X1770000D02*
D03*
Y392500D02*
D03*
X1820000D02*
D03*
X224600Y65000D02*
D03*
X275400D02*
D03*
X55000Y417500D02*
D03*
Y367500D02*
D03*
Y525000D02*
D03*
Y475000D02*
D03*
Y632500D02*
D03*
Y582500D02*
D03*
Y740000D02*
D03*
Y690000D02*
D03*
D41*
X345000Y513000D02*
D03*
Y563000D02*
D03*
X299000D02*
D03*
Y513000D02*
D03*
X253000D02*
D03*
Y563000D02*
D03*
X220000Y447000D02*
D03*
X118000D02*
D03*
X220000Y477000D02*
D03*
X118000D02*
D03*
X220000Y507000D02*
D03*
X118000D02*
D03*
Y537000D02*
D03*
X220000D02*
D03*
Y567000D02*
D03*
X118000D02*
D03*
X169000Y600000D02*
D03*
X194400D02*
D03*
X143600D02*
D03*
X132000Y364000D02*
D03*
Y414000D02*
D03*
X225500D02*
D03*
Y364000D02*
D03*
X258000Y360000D02*
D03*
X360000D02*
D03*
X258000Y389000D02*
D03*
X360000D02*
D03*
X258000Y418000D02*
D03*
X360000D02*
D03*
X258000Y447000D02*
D03*
X360000D02*
D03*
X242000Y623400D02*
D03*
Y648800D02*
D03*
Y598000D02*
D03*
X292000Y623400D02*
D03*
Y648800D02*
D03*
Y598000D02*
D03*
X355000Y812000D02*
D03*
X457000D02*
D03*
X355000Y841000D02*
D03*
X457000D02*
D03*
X355000Y870000D02*
D03*
X457000D02*
D03*
X355000Y899000D02*
D03*
X457000D02*
D03*
X476000Y812000D02*
D03*
X578000D02*
D03*
X398000Y774000D02*
D03*
X448000D02*
D03*
X356000Y779000D02*
D03*
Y729000D02*
D03*
X423000Y732000D02*
D03*
X397600D02*
D03*
X448400D02*
D03*
X325000Y693000D02*
D03*
Y591000D02*
D03*
X398000Y677000D02*
D03*
X448000D02*
D03*
X489000Y639000D02*
D03*
X387000D02*
D03*
X489000Y610000D02*
D03*
X387000D02*
D03*
X537000Y779000D02*
D03*
Y729000D02*
D03*
X490000Y779000D02*
D03*
Y729000D02*
D03*
X629000Y668000D02*
D03*
Y642600D02*
D03*
Y693400D02*
D03*
X579000Y668000D02*
D03*
Y642600D02*
D03*
Y693400D02*
D03*
X537000Y642000D02*
D03*
Y692000D02*
D03*
X523000Y609000D02*
D03*
X625000D02*
D03*
X504000Y576000D02*
D03*
Y526000D02*
D03*
X649000Y616000D02*
D03*
Y514000D02*
D03*
X630000Y720000D02*
D03*
Y822000D02*
D03*
X601000D02*
D03*
Y720000D02*
D03*
X800000Y805000D02*
D03*
X750000D02*
D03*
X890000D02*
D03*
X840000D02*
D03*
X968000Y941000D02*
D03*
Y891000D02*
D03*
X1028000D02*
D03*
Y941000D02*
D03*
X1018000Y831000D02*
D03*
Y805600D02*
D03*
Y856400D02*
D03*
X978000Y831000D02*
D03*
Y856400D02*
D03*
Y805600D02*
D03*
X1241000Y625000D02*
D03*
X1343000D02*
D03*
Y596000D02*
D03*
X1241000D02*
D03*
X1265000Y558000D02*
D03*
X1315000D02*
D03*
X1343000Y521000D02*
D03*
X1241000D02*
D03*
X1602000Y507000D02*
D03*
X1552000D02*
D03*
X1615000Y573000D02*
D03*
Y598400D02*
D03*
Y547600D02*
D03*
X1565000Y573000D02*
D03*
Y598400D02*
D03*
Y547600D02*
D03*
X1722000Y638000D02*
D03*
X1672000D02*
D03*
X1543000Y630000D02*
D03*
X1645000D02*
D03*
X1520000Y573000D02*
D03*
Y675000D02*
D03*
X1491000Y573000D02*
D03*
Y675000D02*
D03*
X1698000Y395000D02*
D03*
Y497000D02*
D03*
X1727000Y348000D02*
D03*
Y450000D02*
D03*
X1660000Y454000D02*
D03*
Y404000D02*
D03*
X1644000Y362000D02*
D03*
X1694000D02*
D03*
X1587500Y255000D02*
D03*
Y357000D02*
D03*
X1557500Y255000D02*
D03*
Y357000D02*
D03*
X1467500Y235000D02*
D03*
X1517500D02*
D03*
X1452500Y325400D02*
D03*
Y300000D02*
D03*
Y274600D02*
D03*
X1532500Y350800D02*
D03*
Y325400D02*
D03*
Y300000D02*
D03*
Y274600D02*
D03*
X1553500Y382500D02*
D03*
X1451500D02*
D03*
Y412500D02*
D03*
X1553500D02*
D03*
X1344000Y475000D02*
D03*
Y373000D02*
D03*
X1315000Y475000D02*
D03*
Y373000D02*
D03*
X1286000Y475000D02*
D03*
Y373000D02*
D03*
X1249000Y451000D02*
D03*
Y401000D02*
D03*
X1043000Y342000D02*
D03*
X1093000D02*
D03*
X947000Y472000D02*
D03*
Y522000D02*
D03*
X809000Y501000D02*
D03*
X911000D02*
D03*
X809000Y472000D02*
D03*
X911000D02*
D03*
Y443000D02*
D03*
X809000D02*
D03*
Y414000D02*
D03*
X911000D02*
D03*
X809000Y385000D02*
D03*
X911000D02*
D03*
Y356000D02*
D03*
X809000D02*
D03*
Y327000D02*
D03*
X911000D02*
D03*
X809000Y297000D02*
D03*
X911000D02*
D03*
X1076000Y284000D02*
D03*
X1178000D02*
D03*
Y255000D02*
D03*
X1076000D02*
D03*
Y226000D02*
D03*
X1178000D02*
D03*
X1076000Y197000D02*
D03*
X1178000D02*
D03*
X1120000Y159000D02*
D03*
X1170000D02*
D03*
X176000Y167000D02*
D03*
Y65000D02*
D03*
X14500Y247500D02*
D03*
X116500D02*
D03*
Y277500D02*
D03*
X14500D02*
D03*
X20000Y315000D02*
D03*
X70000D02*
D03*
X933000Y198000D02*
D03*
X983000D02*
D03*
X242000Y796000D02*
D03*
X292000D02*
D03*
D42*
X673500Y860000D02*
D03*
D43*
Y920000D02*
D03*
D44*
X626500Y890000D02*
D03*
D45*
X1421500Y952500D02*
D03*
Y889500D02*
D03*
Y826500D02*
D03*
X1258500D02*
D03*
Y889500D02*
D03*
Y952500D02*
D03*
X1558500Y47000D02*
D03*
Y110000D02*
D03*
Y173000D02*
D03*
X1721500D02*
D03*
Y110000D02*
D03*
Y47000D02*
D03*
D46*
X1800000Y800000D02*
D03*
X50000D02*
D03*
D47*
X1452500Y350800D02*
D03*
D48*
X1375000Y40000D02*
D03*
X1425000D02*
D03*
X1325000D02*
D03*
X1025000D02*
D03*
X1125000D02*
D03*
X1075000D02*
D03*
X775000D02*
D03*
X825000D02*
D03*
X725000D02*
D03*
X425000D02*
D03*
X525000D02*
D03*
X475000D02*
D03*
D49*
X1800000Y50000D02*
D03*
Y950000D02*
D03*
X50000D02*
D03*
Y50000D02*
D03*
D50*
X1015850Y398450D02*
D03*
X1267000Y687000D02*
D03*
X1078000Y488000D02*
D03*
X833000Y127000D02*
D03*
X1015350Y462450D02*
D03*
Y449750D02*
D03*
X1162250Y386250D02*
D03*
X1114564Y373637D02*
D03*
X1015350Y411650D02*
D03*
Y424350D02*
D03*
X1136550Y462450D02*
D03*
X1125350Y411650D02*
D03*
M02*
