G04*
G04 #@! TF.GenerationSoftware,Altium Limited,Altium Designer,24.4.1 (13)*
G04*
G04 Layer_Color=65535*
%FSLAX44Y44*%
%MOMM*%
G71*
G04*
G04 #@! TF.SameCoordinates,B5B0D8E5-B161-4E7D-91E4-E0B691D99E8F*
G04*
G04*
G04 #@! TF.FilePolarity,Positive*
G04*
G01*
G75*
%ADD10C,0.2000*%
%ADD11C,0.4000*%
%ADD12C,0.1000*%
%ADD13C,0.5000*%
%ADD14C,0.2540*%
%ADD15C,0.8000*%
%ADD16R,4.0000X0.6000*%
%ADD17R,1.0000X2.8500*%
%ADD18R,0.6000X4.0000*%
%ADD19R,6.0000X0.9500*%
%ADD20R,2.4250X1.0000*%
%ADD21R,1.0000X2.4250*%
G36*
X190000Y-170078D02*
X69414D01*
Y-158457D01*
X56699D01*
Y-158867D01*
X56562D01*
Y-159277D01*
X56426D01*
Y-159551D01*
X56289D01*
Y-159824D01*
X56152D01*
Y-160098D01*
X56016D01*
Y-160371D01*
X55879D01*
Y-160644D01*
X55742D01*
Y-160918D01*
X55606D01*
Y-161191D01*
X55469D01*
Y-161465D01*
X55332D01*
Y-161602D01*
X55195D01*
Y-161875D01*
X55059D01*
Y-162148D01*
X54922D01*
Y-162285D01*
X54785D01*
Y-162559D01*
X54648D01*
Y-162695D01*
X54512D01*
Y-162832D01*
X54375D01*
Y-163105D01*
X54238D01*
Y-163242D01*
X54102D01*
Y-163379D01*
X53965D01*
Y-163652D01*
X53828D01*
Y-163789D01*
X53691D01*
Y-163926D01*
X53555D01*
Y-164062D01*
X53418D01*
Y-164199D01*
X53281D01*
Y-164473D01*
X53144D01*
Y-164609D01*
X53008D01*
Y-164746D01*
X52871D01*
Y-164883D01*
X52734D01*
Y-165019D01*
X52598D01*
Y-165156D01*
X52461D01*
Y-165293D01*
X52324D01*
Y-165430D01*
X52188D01*
Y-165566D01*
X52051D01*
Y-165703D01*
X51777D01*
Y-165840D01*
X51641D01*
Y-165977D01*
X51504D01*
Y-166113D01*
X51367D01*
Y-166250D01*
X51231D01*
Y-166387D01*
X50957D01*
Y-166523D01*
X50820D01*
Y-166660D01*
X50684D01*
Y-166797D01*
X50410D01*
Y-166934D01*
X50273D01*
Y-167070D01*
X50137D01*
Y-167207D01*
X49863D01*
Y-167344D01*
X49590D01*
Y-167480D01*
X49453D01*
Y-167617D01*
X49180D01*
Y-167754D01*
X49043D01*
Y-167891D01*
X48769D01*
Y-168027D01*
X48496D01*
Y-168164D01*
X48223D01*
Y-168301D01*
X47949D01*
Y-168438D01*
X47676D01*
Y-168574D01*
X47402D01*
Y-168711D01*
X46992D01*
Y-168848D01*
X46719D01*
Y-168984D01*
X46309D01*
Y-169121D01*
X45898D01*
Y-169258D01*
X45488D01*
Y-169394D01*
X45078D01*
Y-169531D01*
X44531D01*
Y-169668D01*
X43984D01*
Y-169805D01*
X43301D01*
Y-169941D01*
X42344D01*
Y-170078D01*
X34004D01*
Y-169941D01*
X33047D01*
Y-169805D01*
X32227D01*
Y-169668D01*
X31680D01*
Y-169531D01*
X30996D01*
Y-169394D01*
X30586D01*
Y-169258D01*
X30039D01*
Y-169121D01*
X29629D01*
Y-168984D01*
X29219D01*
Y-168848D01*
X28945D01*
Y-168711D01*
X28535D01*
Y-168574D01*
X28262D01*
Y-168438D01*
X27852D01*
Y-168301D01*
X27578D01*
Y-168164D01*
X27305D01*
Y-168027D01*
X27031D01*
Y-167891D01*
X26758D01*
Y-167754D01*
X26484D01*
Y-167617D01*
X26211D01*
Y-167480D01*
X25938D01*
Y-167344D01*
X25664D01*
Y-167207D01*
X25527D01*
Y-167070D01*
X25254D01*
Y-166934D01*
X24980D01*
Y-166797D01*
X24844D01*
Y-166660D01*
X24570D01*
Y-166523D01*
X24434D01*
Y-166387D01*
X24160D01*
Y-166250D01*
X24023D01*
Y-166113D01*
X23887D01*
Y-165977D01*
X23613D01*
Y-165840D01*
X23477D01*
Y-165703D01*
X23340D01*
Y-165566D01*
X23066D01*
Y-165430D01*
X22930D01*
Y-165293D01*
X22793D01*
Y-165156D01*
X22656D01*
Y-165019D01*
X22383D01*
Y-164883D01*
X22246D01*
Y-164746D01*
X22109D01*
Y-164609D01*
X21973D01*
Y-164473D01*
X21836D01*
Y-164336D01*
X21699D01*
Y-164199D01*
X21562D01*
Y-164062D01*
X21426D01*
Y-163926D01*
X21289D01*
Y-163789D01*
X21152D01*
Y-163652D01*
X21016D01*
Y-163516D01*
X20879D01*
Y-163379D01*
X20742D01*
Y-163242D01*
X20605D01*
Y-163105D01*
X20469D01*
Y-162969D01*
X20332D01*
Y-162832D01*
X20195D01*
Y-162559D01*
X20059D01*
Y-162422D01*
X19922D01*
Y-162285D01*
X19785D01*
Y-162148D01*
X19648D01*
Y-162012D01*
X19512D01*
Y-161738D01*
X19375D01*
Y-161602D01*
X19238D01*
Y-161465D01*
X19102D01*
Y-161191D01*
X18965D01*
Y-161055D01*
X18828D01*
Y-160781D01*
X18691D01*
Y-160644D01*
X18555D01*
Y-160371D01*
X18418D01*
Y-160234D01*
X18281D01*
Y-159961D01*
X18145D01*
Y-159824D01*
X18008D01*
Y-159551D01*
X17871D01*
Y-159277D01*
X17734D01*
Y-159141D01*
X17598D01*
Y-158867D01*
X17461D01*
Y-158594D01*
X17324D01*
Y-158320D01*
X17188D01*
Y-158047D01*
X17051D01*
Y-157773D01*
X16914D01*
Y-157363D01*
X16777D01*
Y-157090D01*
X16641D01*
Y-156816D01*
X16504D01*
Y-156406D01*
X16367D01*
Y-156133D01*
X16230D01*
Y-155723D01*
X16094D01*
Y-155312D01*
X15957D01*
Y-154902D01*
X15820D01*
Y-154355D01*
X15684D01*
Y-153809D01*
X15547D01*
Y-153262D01*
X15410D01*
Y-152578D01*
X15273D01*
Y-151621D01*
X15137D01*
Y-150391D01*
X15000D01*
Y-147109D01*
X15137D01*
Y-145879D01*
X15273D01*
Y-144922D01*
X15410D01*
Y-144238D01*
X15547D01*
Y-143691D01*
X15684D01*
Y-143145D01*
X15820D01*
Y-142598D01*
X15957D01*
Y-142188D01*
X16094D01*
Y-141777D01*
X16230D01*
Y-141367D01*
X16367D01*
Y-141094D01*
X16504D01*
Y-140684D01*
X16641D01*
Y-140410D01*
X16777D01*
Y-140137D01*
X16914D01*
Y-139726D01*
X17051D01*
Y-139453D01*
X17188D01*
Y-139180D01*
X17324D01*
Y-138906D01*
X17461D01*
Y-138633D01*
X17598D01*
Y-138359D01*
X17734D01*
Y-138223D01*
X17871D01*
Y-137949D01*
X18008D01*
Y-137676D01*
X18145D01*
Y-137539D01*
X18281D01*
Y-137266D01*
X18418D01*
Y-137129D01*
X18555D01*
Y-136855D01*
X18691D01*
Y-136719D01*
X18828D01*
Y-136445D01*
X18965D01*
Y-136309D01*
X19102D01*
Y-136035D01*
X19238D01*
Y-135898D01*
X19375D01*
Y-135762D01*
X19512D01*
Y-135488D01*
X19648D01*
Y-135351D01*
X19785D01*
Y-135215D01*
X19922D01*
Y-135078D01*
X20059D01*
Y-134941D01*
X20195D01*
Y-134668D01*
X20332D01*
Y-134531D01*
X20469D01*
Y-134395D01*
X20605D01*
Y-134258D01*
X20742D01*
Y-134121D01*
X20879D01*
Y-133984D01*
X21016D01*
Y-133848D01*
X21152D01*
Y-133711D01*
X21289D01*
Y-133574D01*
X21426D01*
Y-133438D01*
X21562D01*
Y-133301D01*
X21699D01*
Y-133164D01*
X21836D01*
Y-133027D01*
X21973D01*
Y-132891D01*
X22109D01*
Y-132754D01*
X22246D01*
Y-132617D01*
X22383D01*
Y-132480D01*
X22656D01*
Y-132344D01*
X22793D01*
Y-132207D01*
X22930D01*
Y-132070D01*
X23066D01*
Y-131934D01*
X23340D01*
Y-131797D01*
X23477D01*
Y-131660D01*
X23613D01*
Y-131523D01*
X23887D01*
Y-131387D01*
X24023D01*
Y-131250D01*
X24160D01*
Y-131113D01*
X24434D01*
Y-130976D01*
X24570D01*
Y-130840D01*
X24844D01*
Y-130703D01*
X24980D01*
Y-130566D01*
X25254D01*
Y-130430D01*
X25527D01*
Y-130293D01*
X25664D01*
Y-130156D01*
X25938D01*
Y-130020D01*
X26211D01*
Y-129883D01*
X26484D01*
Y-129746D01*
X26758D01*
Y-129609D01*
X27031D01*
Y-129473D01*
X27305D01*
Y-129336D01*
X27578D01*
Y-129199D01*
X27852D01*
Y-129062D01*
X28262D01*
Y-128926D01*
X28535D01*
Y-128789D01*
X28945D01*
Y-128652D01*
X29219D01*
Y-128516D01*
X29629D01*
Y-128379D01*
X30039D01*
Y-128242D01*
X30586D01*
Y-128105D01*
X30996D01*
Y-127969D01*
X31680D01*
Y-127832D01*
X32227D01*
Y-127695D01*
X33047D01*
Y-127559D01*
X34004D01*
Y-127422D01*
X69414D01*
Y-123457D01*
X178379D01*
Y-39922D01*
X190000D01*
Y-170078D01*
D02*
G37*
G36*
X290000Y34086D02*
Y95000D01*
X297500Y81250D01*
X297083Y80167D01*
X298750Y78500D01*
Y70250D01*
X300000Y69000D01*
Y60750D01*
X299250Y60000D01*
Y56500D01*
X298750Y54000D01*
X290000Y34086D01*
D02*
G37*
G36*
X824500Y618000D02*
X959500D01*
X949066Y608750D01*
X932719Y597336D01*
X914500Y590500D01*
X888764Y587849D01*
X874896Y589366D01*
X853446Y596191D01*
X837314Y606959D01*
X830745Y611755D01*
X824500Y618000D01*
D02*
G37*
G36*
X1083000Y368600D02*
X1052000D01*
Y378600D01*
X1083000D01*
Y368600D01*
D02*
G37*
G36*
X1164500Y738000D02*
X1029500D01*
X1039934Y747250D01*
X1056281Y758664D01*
X1074500Y765500D01*
X1100236Y768151D01*
X1114104Y766634D01*
X1135554Y759809D01*
X1151686Y749041D01*
X1158255Y744245D01*
X1164500Y738000D01*
D02*
G37*
%LPC*%
G36*
X135586Y-140957D02*
X123965D01*
Y-141094D01*
X123828D01*
Y-152578D01*
X135586D01*
Y-140957D01*
D02*
G37*
G36*
X116035D02*
X104414D01*
Y-152578D01*
X116172D01*
Y-141094D01*
X116035D01*
Y-140957D01*
D02*
G37*
G36*
X69414Y-139043D02*
X35098D01*
Y-139180D01*
X34277D01*
Y-139316D01*
X33730D01*
Y-139453D01*
X33320D01*
Y-139590D01*
X32910D01*
Y-139726D01*
X32637D01*
Y-139863D01*
X32363D01*
Y-140000D01*
X32090D01*
Y-140137D01*
X31816D01*
Y-140273D01*
X31543D01*
Y-140410D01*
X31270D01*
Y-140547D01*
X31133D01*
Y-140684D01*
X30859D01*
Y-140820D01*
X30723D01*
Y-140957D01*
X30449D01*
Y-141094D01*
X30312D01*
Y-141230D01*
X30176D01*
Y-141367D01*
X30039D01*
Y-141504D01*
X29902D01*
Y-141641D01*
X29629D01*
Y-141777D01*
X29492D01*
Y-141914D01*
X29355D01*
Y-142051D01*
X29219D01*
Y-142324D01*
X29082D01*
Y-142461D01*
X28945D01*
Y-142598D01*
X28809D01*
Y-142734D01*
X28672D01*
Y-142871D01*
X28535D01*
Y-143145D01*
X28398D01*
Y-143281D01*
X28262D01*
Y-143555D01*
X28125D01*
Y-143691D01*
X27988D01*
Y-143965D01*
X27852D01*
Y-144238D01*
X27715D01*
Y-144512D01*
X27578D01*
Y-144785D01*
X27441D01*
Y-145059D01*
X27305D01*
Y-145469D01*
X27168D01*
Y-145879D01*
X27031D01*
Y-146426D01*
X26895D01*
Y-146973D01*
X26758D01*
Y-148066D01*
X26621D01*
Y-149434D01*
X26758D01*
Y-150527D01*
X26895D01*
Y-151074D01*
X27031D01*
Y-151621D01*
X27168D01*
Y-152031D01*
X27305D01*
Y-152441D01*
X27441D01*
Y-152715D01*
X27578D01*
Y-152988D01*
X27715D01*
Y-153262D01*
X27852D01*
Y-153535D01*
X27988D01*
Y-153809D01*
X28125D01*
Y-153945D01*
X28262D01*
Y-154219D01*
X28398D01*
Y-154355D01*
X28535D01*
Y-154629D01*
X28672D01*
Y-154766D01*
X28809D01*
Y-154902D01*
X28945D01*
Y-155039D01*
X29082D01*
Y-155176D01*
X29219D01*
Y-155312D01*
X29355D01*
Y-155586D01*
X29492D01*
Y-155723D01*
X29766D01*
Y-155859D01*
X29902D01*
Y-155996D01*
X30039D01*
Y-156133D01*
X30176D01*
Y-156270D01*
X30312D01*
Y-156406D01*
X30449D01*
Y-156543D01*
X30723D01*
Y-156680D01*
X30859D01*
Y-156816D01*
X31133D01*
Y-156953D01*
X31270D01*
Y-157090D01*
X31543D01*
Y-157226D01*
X31816D01*
Y-157363D01*
X32090D01*
Y-157500D01*
X32363D01*
Y-157637D01*
X32637D01*
Y-157773D01*
X32910D01*
Y-157910D01*
X33320D01*
Y-158047D01*
X33730D01*
Y-158184D01*
X34277D01*
Y-158320D01*
X35098D01*
Y-158457D01*
X41250D01*
Y-158320D01*
X41797D01*
Y-158184D01*
X42207D01*
Y-158047D01*
X42617D01*
Y-157910D01*
X42891D01*
Y-157773D01*
X43164D01*
Y-157637D01*
X43438D01*
Y-157500D01*
X43574D01*
Y-157363D01*
X43711D01*
Y-157226D01*
X43984D01*
Y-157090D01*
X44121D01*
Y-156953D01*
X44258D01*
Y-156816D01*
X44395D01*
Y-156680D01*
X44531D01*
Y-156543D01*
X44668D01*
Y-156406D01*
X44805D01*
Y-156270D01*
X44941D01*
Y-155996D01*
X45078D01*
Y-155859D01*
X45215D01*
Y-155586D01*
X45352D01*
Y-155449D01*
X45488D01*
Y-155039D01*
X45625D01*
Y-154766D01*
X45762D01*
Y-154355D01*
X45898D01*
Y-153945D01*
X46035D01*
Y-152715D01*
X46172D01*
Y-146836D01*
X69414D01*
Y-139043D01*
D02*
G37*
G36*
X155000Y-140957D02*
X143379D01*
Y-152578D01*
X155000D01*
Y-140957D01*
D02*
G37*
%LPD*%
D10*
X207950Y613000D02*
G03*
X192950Y628000I-15000J0D01*
G01*
X145050D02*
G03*
X130050Y613000I0J-15000D01*
G01*
X229000Y662350D02*
G03*
X214000Y647350I0J-15000D01*
G01*
Y599450D02*
G03*
X229000Y584450I15000J0D01*
G01*
X279000Y662350D02*
G03*
X264000Y647350I0J-15000D01*
G01*
Y599450D02*
G03*
X279000Y584450I15000J0D01*
G01*
X384050Y719000D02*
G03*
X399050Y704000I15000J0D01*
G01*
X446950D02*
G03*
X461950Y719000I0J15000D01*
G01*
X642000Y629050D02*
G03*
X657000Y644050I0J15000D01*
G01*
Y691950D02*
G03*
X642000Y706950I-15000J0D01*
G01*
X592000Y629050D02*
G03*
X607000Y644050I0J15000D01*
G01*
Y691950D02*
G03*
X592000Y706950I-15000J0D01*
G01*
X1031000Y792050D02*
G03*
X1046000Y807050I0J15000D01*
G01*
Y854950D02*
G03*
X1031000Y869950I-15000J0D01*
G01*
X965000D02*
G03*
X950000Y854950I0J-15000D01*
G01*
Y807050D02*
G03*
X965000Y792050I15000J0D01*
G01*
X982000Y678000D02*
G03*
X982000Y678000I-90000J0D01*
G01*
X1187000D02*
G03*
X1187000Y678000I-90000J0D01*
G01*
X1602000Y611950D02*
G03*
X1587000Y596950I0J-15000D01*
G01*
Y549050D02*
G03*
X1602000Y534050I15000J0D01*
G01*
X1552000Y611950D02*
G03*
X1537000Y596950I0J-15000D01*
G01*
Y549050D02*
G03*
X1552000Y534050I15000J0D01*
G01*
X300000Y65000D02*
G03*
X300000Y65000I-50000J0D01*
G01*
X523100Y137000D02*
X726850D01*
X523100D02*
Y163000D01*
X726850D01*
Y137000D02*
Y163000D01*
X1637000Y511000D02*
Y611000D01*
X1737000Y511000D02*
Y611000D01*
X1637000D02*
X1737000D01*
X1637000Y511000D02*
X1737000D01*
X325000Y578000D02*
X365000D01*
X325000Y498000D02*
X365000D01*
X325000D02*
Y578000D01*
X365000Y498000D02*
Y578000D01*
X279000Y498000D02*
X319000D01*
X279000Y578000D02*
X319000D01*
Y498000D02*
Y578000D01*
X279000Y498000D02*
Y578000D01*
X233000Y498000D02*
Y578000D01*
X273000Y498000D02*
Y578000D01*
X233000D02*
X273000D01*
X233000Y498000D02*
X273000D01*
X115500Y458250D02*
X222500D01*
X115500Y435750D02*
X222500D01*
X115500Y488250D02*
X222500D01*
X115500Y465750D02*
X222500D01*
X115500Y518250D02*
X222500D01*
X115500Y495750D02*
X222500D01*
X115500Y525750D02*
X222500D01*
X115500Y548250D02*
X222500D01*
X115500Y578250D02*
X222500D01*
X115500Y555750D02*
X222500D01*
X130050Y584500D02*
Y613000D01*
Y584500D02*
X207950D01*
Y613000D01*
X112000Y349000D02*
Y429000D01*
X152000Y349000D02*
Y429000D01*
X112000D02*
X152000D01*
X112000Y349000D02*
X152000D01*
X245500D02*
Y429000D01*
X205500Y349000D02*
Y429000D01*
Y349000D02*
X245500D01*
X205500Y429000D02*
X245500D01*
X255500Y348750D02*
X362500D01*
X255500Y371250D02*
X362500D01*
X255500Y377750D02*
X362500D01*
X255500Y400250D02*
X362500D01*
X255500Y406750D02*
X362500D01*
X255500Y429250D02*
X362500D01*
X255500Y435750D02*
X362500D01*
X255500Y458250D02*
X362500D01*
X229000Y584450D02*
X257500D01*
Y662350D01*
X229000D02*
X257500D01*
X279000Y584450D02*
X307500D01*
Y662350D01*
X279000D02*
X307500D01*
X207000Y669000D02*
Y769000D01*
X307000Y669000D02*
Y769000D01*
X207000D02*
X307000D01*
X207000Y669000D02*
X307000D01*
X352500Y800750D02*
X459500D01*
X352500Y823250D02*
X459500D01*
X352500Y829750D02*
X459500D01*
X352500Y852250D02*
X459500D01*
X352500Y858750D02*
X459500D01*
X352500Y881250D02*
X459500D01*
X352500Y887750D02*
X459500D01*
X352500Y910250D02*
X459500D01*
X473500Y800750D02*
X580500D01*
X473500Y823250D02*
X580500D01*
X463000Y754000D02*
Y794000D01*
X383000Y754000D02*
Y794000D01*
X463000D01*
X383000Y754000D02*
X463000D01*
X336000Y714000D02*
X376000D01*
X336000Y794000D02*
X376000D01*
Y714000D02*
Y794000D01*
X336000Y714000D02*
Y794000D01*
X461950Y719000D02*
Y747500D01*
X384050D02*
X461950D01*
X384050Y719000D02*
Y747500D01*
X313750Y588500D02*
Y695500D01*
X336250Y588500D02*
Y695500D01*
X383000Y697000D02*
X463000D01*
X383000Y657000D02*
X463000D01*
Y697000D01*
X383000Y657000D02*
Y697000D01*
X384500Y650250D02*
X491500D01*
X384500Y627750D02*
X491500D01*
X384500Y621250D02*
X491500D01*
X384500Y598750D02*
X491500D01*
X517000Y714000D02*
X557000D01*
X517000Y794000D02*
X557000D01*
Y714000D02*
Y794000D01*
X517000Y714000D02*
Y794000D01*
X470000Y714000D02*
X510000D01*
X470000Y794000D02*
X510000D01*
Y714000D02*
Y794000D01*
X470000Y714000D02*
Y794000D01*
X613500Y706950D02*
X642000D01*
X613500Y629050D02*
Y706950D01*
Y629050D02*
X642000D01*
X563500Y706950D02*
X592000D01*
X563500Y629050D02*
Y706950D01*
Y629050D02*
X592000D01*
X517000Y627000D02*
Y707000D01*
X557000Y627000D02*
Y707000D01*
X517000D02*
X557000D01*
X517000Y627000D02*
X557000D01*
X520500Y597750D02*
X627500D01*
X520500Y620250D02*
X627500D01*
X524000Y511000D02*
Y591000D01*
X484000Y511000D02*
Y591000D01*
Y511000D02*
X524000D01*
X484000Y591000D02*
X524000D01*
X531000Y491000D02*
X631000D01*
X531000Y591000D02*
X631000D01*
X531000Y491000D02*
Y591000D01*
X631000Y491000D02*
Y591000D01*
X637750Y511500D02*
Y618500D01*
X660250Y511500D02*
Y618500D01*
X641250Y717500D02*
Y824500D01*
X618750Y717500D02*
Y824500D01*
X589750Y717500D02*
Y824500D01*
X612250Y717500D02*
Y824500D01*
X624500Y994000D02*
X718500D01*
Y853000D02*
Y994000D01*
X624500Y853000D02*
Y864000D01*
X701000Y853000D02*
X718500D01*
X624500Y916000D02*
Y994000D01*
Y853000D02*
X645250D01*
X840263Y993850D02*
X840500Y903230D01*
X771380Y993850D02*
X840249D01*
X760000D02*
X771380D01*
X760000Y903230D02*
Y993850D01*
X766500Y893250D02*
X873500D01*
X766500Y866750D02*
X873500D01*
X766500Y831750D02*
X873500D01*
X766500Y858250D02*
X873500D01*
X735000Y785000D02*
Y825000D01*
X815000Y785000D02*
Y825000D01*
X735000Y785000D02*
X815000D01*
X735000Y825000D02*
X815000D01*
X825000Y785000D02*
Y825000D01*
X905000Y785000D02*
Y825000D01*
X825000Y785000D02*
X905000D01*
X825000Y825000D02*
X905000D01*
X948000Y876000D02*
X988000D01*
X948000Y956000D02*
X988000D01*
Y876000D02*
Y956000D01*
X948000Y876000D02*
Y956000D01*
X1008000D02*
X1048000D01*
X1008000Y876000D02*
X1048000D01*
X1008000D02*
Y956000D01*
X1048000Y876000D02*
Y956000D01*
X1002500Y869950D02*
X1031000D01*
X1002500Y792050D02*
Y869950D01*
Y792050D02*
X1031000D01*
X965000D02*
X993500D01*
Y869950D01*
X965000D02*
X993500D01*
X1238500Y613750D02*
X1345500D01*
X1238500Y636250D02*
X1345500D01*
X1238500Y607250D02*
X1345500D01*
X1238500Y584750D02*
X1345500D01*
X1330000Y538000D02*
Y578000D01*
X1250000Y538000D02*
Y578000D01*
X1330000D01*
X1250000Y538000D02*
X1330000D01*
X1238500Y532250D02*
X1345500D01*
X1238500Y509750D02*
X1345500D01*
X1537000Y487000D02*
Y527000D01*
X1617000Y487000D02*
Y527000D01*
X1537000Y487000D02*
X1617000D01*
X1537000Y527000D02*
X1617000D01*
X1602000Y534050D02*
X1630500D01*
Y611950D01*
X1602000D02*
X1630500D01*
X1552000Y534050D02*
X1580500D01*
Y611950D01*
X1552000D02*
X1580500D01*
X1657000Y618000D02*
X1737000D01*
X1657000Y658000D02*
X1737000D01*
X1657000Y618000D02*
Y658000D01*
X1737000Y618000D02*
Y658000D01*
X1540500Y618750D02*
X1647500D01*
X1540500Y641250D02*
X1647500D01*
X1531250Y570500D02*
Y677500D01*
X1508750Y570500D02*
Y677500D01*
X1502250Y570500D02*
Y677500D01*
X1479750Y570500D02*
Y677500D01*
X1249500Y993500D02*
X1285500D01*
X1249500Y966250D02*
Y993500D01*
X1285500D02*
X1430500D01*
Y966250D02*
Y993500D01*
Y758500D02*
Y812250D01*
X1259250Y758500D02*
X1430500Y758500D01*
X1249500D02*
Y812250D01*
Y758500D02*
X1259250D01*
X1745000Y665000D02*
X1845000D01*
X1745000Y765000D02*
X1845000D01*
X1745000Y665000D02*
Y765000D01*
X1845000Y665000D02*
Y765000D01*
X1745000Y657500D02*
X1845000D01*
X1745000Y557500D02*
X1845000D01*
Y657500D01*
X1745000Y557500D02*
Y657500D01*
Y550000D02*
X1845000D01*
X1745000Y450000D02*
X1845000D01*
Y550000D01*
X1745000Y450000D02*
Y550000D01*
Y342500D02*
X1845000D01*
X1745000Y442500D02*
X1845000D01*
X1745000Y342500D02*
Y442500D01*
X1845000Y342500D02*
Y442500D01*
X1709250Y392500D02*
Y499500D01*
X1686750Y392500D02*
Y499500D01*
X1738250Y345500D02*
Y452500D01*
X1715750Y345500D02*
Y452500D01*
X1640000Y389000D02*
X1680000D01*
X1640000Y469000D02*
X1680000D01*
Y389000D02*
Y469000D01*
X1640000Y389000D02*
Y469000D01*
X1629000Y382000D02*
X1709000D01*
X1629000Y342000D02*
X1709000D01*
Y382000D01*
X1629000Y342000D02*
Y382000D01*
X1598750Y252500D02*
Y359500D01*
X1576250Y252500D02*
Y359500D01*
X1568750Y252500D02*
Y359500D01*
X1546250Y252500D02*
Y359500D01*
X1452500Y255000D02*
X1532500D01*
X1452500Y215000D02*
X1532500D01*
Y255000D01*
X1452500Y215000D02*
Y255000D01*
X1462500Y263200D02*
Y362200D01*
X1522500Y263200D02*
Y362200D01*
X1462500Y263200D02*
X1522500D01*
X1462500Y362200D02*
X1522500D01*
X1449000Y393750D02*
X1556000D01*
X1449000Y371250D02*
X1556000D01*
X1449000Y401250D02*
X1556000D01*
X1449000Y423750D02*
X1556000D01*
X1332750Y370500D02*
Y477500D01*
X1355250Y370500D02*
Y477500D01*
X1303750Y370500D02*
Y477500D01*
X1326250Y370500D02*
Y477500D01*
X1274750Y370500D02*
Y477500D01*
X1297250Y370500D02*
Y477500D01*
X1229000Y386000D02*
X1269000D01*
X1229000Y466000D02*
X1269000D01*
Y386000D02*
Y466000D01*
X1229000Y386000D02*
Y466000D01*
X1108000Y322000D02*
Y362000D01*
X1028000Y322000D02*
Y362000D01*
X1108000D01*
X1028000Y322000D02*
X1108000D01*
X1083000Y368600D02*
Y467400D01*
X1052000Y368600D02*
Y467400D01*
X1083000D01*
X1052000Y368600D02*
X1083000D01*
X927000Y537000D02*
X967000D01*
X927000Y457000D02*
X967000D01*
X927000D02*
Y537000D01*
X967000Y457000D02*
Y537000D01*
X806500Y489750D02*
X913500D01*
X806500Y512250D02*
X913500D01*
X806500Y460750D02*
X913500D01*
X806500Y483250D02*
X913500D01*
X806500Y454250D02*
X913500D01*
X806500Y431750D02*
X913500D01*
X806500Y402750D02*
X913500D01*
X806500Y425250D02*
X913500D01*
X806500Y373750D02*
X913500D01*
X806500Y396250D02*
X913500D01*
X806500Y367250D02*
X913500D01*
X806500Y344750D02*
X913500D01*
X806500Y315750D02*
X913500D01*
X806500Y338250D02*
X913500D01*
X806500Y285750D02*
X913500D01*
X806500Y308250D02*
X913500D01*
X1073500Y272750D02*
X1180500D01*
X1073500Y295250D02*
X1180500D01*
X1073500Y266250D02*
X1180500D01*
X1073500Y243750D02*
X1180500D01*
X1073500Y214750D02*
X1180500D01*
X1073500Y237250D02*
X1180500D01*
X1073500Y185750D02*
X1180500D01*
X1073500Y208250D02*
X1180500D01*
X1185000Y139000D02*
Y179000D01*
X1105000Y139000D02*
Y179000D01*
X1185000D01*
X1105000Y139000D02*
X1185000D01*
X1694500Y6000D02*
X1730500D01*
Y33250D01*
X1549500Y6000D02*
X1694500D01*
X1549500D02*
Y33250D01*
Y187250D02*
Y241000D01*
X1720750Y241000D01*
X1730500Y187250D02*
Y241000D01*
X1720750D02*
X1730500D01*
X1290500Y8000D02*
X1459500D01*
Y97250D01*
X1290500Y8000D02*
Y97250D01*
X1459500D01*
X990500D02*
X1159500D01*
X990500Y8000D02*
Y97250D01*
X1159500Y8000D02*
Y97250D01*
X990500Y8000D02*
X1159500D01*
X690500D02*
X859500D01*
Y97250D01*
X690500Y8000D02*
Y97250D01*
X859500D01*
X390500D02*
X559500D01*
X390500Y8000D02*
Y97250D01*
X559500Y8000D02*
Y97250D01*
X390500Y8000D02*
X559500D01*
X164750Y62500D02*
Y169500D01*
X187250Y62500D02*
Y169500D01*
X12000Y236250D02*
X119000D01*
X12000Y258750D02*
X119000D01*
X12000Y288750D02*
X119000D01*
X12000Y266250D02*
X119000D01*
X85000Y295000D02*
Y335000D01*
X5000Y295000D02*
Y335000D01*
X85000D01*
X5000Y295000D02*
X85000D01*
X5000Y342500D02*
Y442500D01*
X105000Y342500D02*
Y442500D01*
X5000D02*
X105000D01*
X5000Y342500D02*
X105000D01*
X5000Y450000D02*
Y550000D01*
X105000Y450000D02*
Y550000D01*
X5000D02*
X105000D01*
X5000Y450000D02*
X105000D01*
X5000Y557500D02*
Y657500D01*
X105000Y557500D02*
Y657500D01*
X5000D02*
X105000D01*
X5000Y557500D02*
X105000D01*
X5000Y665000D02*
Y765000D01*
X105000Y665000D02*
Y765000D01*
X5000D02*
X105000D01*
X5000Y665000D02*
X105000D01*
X998000Y178000D02*
Y218000D01*
X918000Y178000D02*
Y218000D01*
X998000D01*
X918000Y178000D02*
X998000D01*
X307000Y776000D02*
Y816000D01*
X227000Y776000D02*
Y816000D01*
X307000D01*
X227000Y776000D02*
X307000D01*
X502001Y156998D02*
X498002D01*
X500001D01*
Y147001D01*
X498002Y145002D01*
X496003D01*
X494003Y147001D01*
X505999Y154999D02*
X507999Y156998D01*
X511997D01*
X513997Y154999D01*
Y152999D01*
X511997Y151000D01*
X509998D01*
X511997D01*
X513997Y149001D01*
Y147001D01*
X511997Y145002D01*
X507999D01*
X505999Y147001D01*
X1676003Y529998D02*
Y518002D01*
X1684001D01*
X1695997Y529998D02*
X1687999D01*
Y524000D01*
X1691998Y525999D01*
X1693997D01*
X1695997Y524000D01*
Y520001D01*
X1693997Y518002D01*
X1689999D01*
X1687999Y520001D01*
X338002Y487999D02*
X336003Y489998D01*
X332004D01*
X330005Y487999D01*
Y480001D01*
X332004Y478002D01*
X336003D01*
X338002Y480001D01*
X342001Y478002D02*
X346000D01*
X344000D01*
Y489998D01*
X342001Y487999D01*
X359995Y489998D02*
X351998D01*
Y484000D01*
X355996Y485999D01*
X357996D01*
X359995Y484000D01*
Y480001D01*
X357996Y478002D01*
X353997D01*
X351998Y480001D01*
X292002Y487999D02*
X290003Y489998D01*
X286004D01*
X284005Y487999D01*
Y480001D01*
X286004Y478002D01*
X290003D01*
X292002Y480001D01*
X296001Y478002D02*
X300000D01*
X298000D01*
Y489998D01*
X296001Y487999D01*
X311996Y478002D02*
Y489998D01*
X305998Y484000D01*
X313995D01*
X246002Y487999D02*
X244003Y489998D01*
X240004D01*
X238005Y487999D01*
Y480001D01*
X240004Y478002D01*
X244003D01*
X246002Y480001D01*
X250001Y478002D02*
X254000D01*
X252000D01*
Y489998D01*
X250001Y487999D01*
X267995Y489998D02*
X263996Y487999D01*
X259998Y484000D01*
Y480001D01*
X261997Y478002D01*
X265996D01*
X267995Y480001D01*
Y482001D01*
X265996Y484000D01*
X259998D01*
X158005Y441002D02*
Y452998D01*
X164003D01*
X166002Y450999D01*
Y447000D01*
X164003Y445001D01*
X158005D01*
X162004D02*
X166002Y441002D01*
X170001D02*
X174000D01*
X172000D01*
Y452998D01*
X170001Y450999D01*
X179998D02*
X181997Y452998D01*
X185996D01*
X187995Y450999D01*
Y448999D01*
X185996Y447000D01*
X187995Y445001D01*
Y443001D01*
X185996Y441002D01*
X181997D01*
X179998Y443001D01*
Y445001D01*
X181997Y447000D01*
X179998Y448999D01*
Y450999D01*
X181997Y447000D02*
X185996D01*
X158005Y471002D02*
Y482998D01*
X164003D01*
X166002Y480999D01*
Y477000D01*
X164003Y475001D01*
X158005D01*
X162004D02*
X166002Y471002D01*
X170001D02*
X174000D01*
X172000D01*
Y482998D01*
X170001Y480999D01*
X179998Y473001D02*
X181997Y471002D01*
X185996D01*
X187995Y473001D01*
Y480999D01*
X185996Y482998D01*
X181997D01*
X179998Y480999D01*
Y478999D01*
X181997Y477000D01*
X187995D01*
X157005Y501002D02*
Y512998D01*
X163003D01*
X165003Y510999D01*
Y507000D01*
X163003Y505001D01*
X157005D01*
X161004D02*
X165003Y501002D01*
X176999D02*
X169001D01*
X176999Y508999D01*
Y510999D01*
X174999Y512998D01*
X171001D01*
X169001Y510999D01*
X180997D02*
X182997Y512998D01*
X186996D01*
X188995Y510999D01*
Y503001D01*
X186996Y501002D01*
X182997D01*
X180997Y503001D01*
Y510999D01*
X158005Y531002D02*
Y542998D01*
X164003D01*
X166002Y540999D01*
Y537000D01*
X164003Y535001D01*
X158005D01*
X162004D02*
X166002Y531002D01*
X170001D02*
X174000D01*
X172000D01*
Y542998D01*
X170001Y540999D01*
X179998Y542998D02*
X187995D01*
Y540999D01*
X179998Y533001D01*
Y531002D01*
X158005Y561002D02*
Y572998D01*
X164003D01*
X166002Y570999D01*
Y567000D01*
X164003Y565001D01*
X158005D01*
X162004D02*
X166002Y561002D01*
X170001D02*
X174000D01*
X172000D01*
Y572998D01*
X170001Y570999D01*
X187995Y572998D02*
X179998D01*
Y567000D01*
X183997Y568999D01*
X185996D01*
X187995Y567000D01*
Y563001D01*
X185996Y561002D01*
X181997D01*
X179998Y563001D01*
X159003Y626998D02*
X167001D01*
X163002D01*
Y615002D01*
X170999Y624999D02*
X172999Y626998D01*
X176997D01*
X178997Y624999D01*
Y622999D01*
X176997Y621000D01*
X178997Y619001D01*
Y617001D01*
X176997Y615002D01*
X172999D01*
X170999Y617001D01*
Y619001D01*
X172999Y621000D01*
X170999Y622999D01*
Y624999D01*
X172999Y621000D02*
X176997D01*
X161001Y403002D02*
X159002Y401003D01*
Y397004D01*
X161001Y395005D01*
X168999D01*
X170998Y397004D01*
Y401003D01*
X168999Y403002D01*
X170998Y407001D02*
Y411000D01*
Y409000D01*
X159002D01*
X161001Y407001D01*
X159002Y416998D02*
Y424995D01*
X161001D01*
X168999Y416998D01*
X170998D01*
X187001Y359002D02*
X185002Y357003D01*
Y353004D01*
X187001Y351005D01*
X194999D01*
X196998Y353004D01*
Y357003D01*
X194999Y359002D01*
X196998Y363001D02*
Y367000D01*
Y365000D01*
X185002D01*
X187001Y363001D01*
Y372998D02*
X185002Y374997D01*
Y378996D01*
X187001Y380995D01*
X189001D01*
X191000Y378996D01*
X192999Y380995D01*
X194999D01*
X196998Y378996D01*
Y374997D01*
X194999Y372998D01*
X192999D01*
X191000Y374997D01*
X189001Y372998D01*
X187001D01*
X191000Y374997D02*
Y378996D01*
X376005Y355002D02*
Y366998D01*
X382003D01*
X384003Y364999D01*
Y361000D01*
X382003Y359001D01*
X376005D01*
X380004D02*
X384003Y355002D01*
X395999D02*
X388001D01*
X395999Y362999D01*
Y364999D01*
X393999Y366998D01*
X390001D01*
X388001Y364999D01*
X407995Y355002D02*
X399997D01*
X407995Y362999D01*
Y364999D01*
X405995Y366998D01*
X401997D01*
X399997Y364999D01*
X376005Y384002D02*
Y395998D01*
X382003D01*
X384002Y393999D01*
Y390000D01*
X382003Y388001D01*
X376005D01*
X380003D02*
X384002Y384002D01*
X395998D02*
X388001D01*
X395998Y391999D01*
Y393999D01*
X393999Y395998D01*
X390000D01*
X388001Y393999D01*
X399997Y384002D02*
X403996D01*
X401996D01*
Y395998D01*
X399997Y393999D01*
X376005Y412002D02*
Y423998D01*
X382003D01*
X384002Y421999D01*
Y418000D01*
X382003Y416001D01*
X376005D01*
X380004D02*
X384002Y412002D01*
X388001D02*
X392000D01*
X390000D01*
Y423998D01*
X388001Y421999D01*
X405995Y423998D02*
X401996Y421999D01*
X397998Y418000D01*
Y414001D01*
X399997Y412002D01*
X403996D01*
X405995Y414001D01*
Y416001D01*
X403996Y418000D01*
X397998D01*
X376005Y441002D02*
Y452998D01*
X382003D01*
X384003Y450999D01*
Y447000D01*
X382003Y445001D01*
X376005D01*
X380004D02*
X384003Y441002D01*
X393999D02*
Y452998D01*
X388001Y447000D01*
X395999D01*
X399997Y450999D02*
X401997Y452998D01*
X405995D01*
X407995Y450999D01*
Y443001D01*
X405995Y441002D01*
X401997D01*
X399997Y443001D01*
Y450999D01*
X216002Y613003D02*
Y621001D01*
Y617002D01*
X227998D01*
X216002Y632997D02*
X218001Y628998D01*
X222000Y624999D01*
X225999D01*
X227998Y626999D01*
Y630997D01*
X225999Y632997D01*
X223999D01*
X222000Y630997D01*
Y624999D01*
X265002Y613003D02*
Y621001D01*
Y617002D01*
X276998D01*
X265002Y624999D02*
Y632997D01*
X267001D01*
X274999Y624999D01*
X276998D01*
X242004Y688998D02*
Y677002D01*
X250002D01*
X254000D02*
X257999D01*
X256000D01*
Y688998D01*
X254000Y686999D01*
X263997Y677002D02*
X267996D01*
X265996D01*
Y688998D01*
X263997Y686999D01*
X316004Y806002D02*
Y817998D01*
X322002D01*
X324002Y815999D01*
Y812000D01*
X322002Y810001D01*
X316004D01*
X320003D02*
X324002Y806002D01*
X328000D02*
X331999D01*
X330000D01*
Y817998D01*
X328000Y815999D01*
X337997Y806002D02*
X341996D01*
X339996D01*
Y817998D01*
X337997Y815999D01*
X473005Y835002D02*
Y846998D01*
X479003D01*
X481002Y844999D01*
Y841000D01*
X479003Y839001D01*
X473005D01*
X477004D02*
X481002Y835002D01*
X485001D02*
X489000D01*
X487000D01*
Y846998D01*
X485001Y844999D01*
X494998D02*
X496997Y846998D01*
X500996D01*
X502995Y844999D01*
Y837001D01*
X500996Y835002D01*
X496997D01*
X494998Y837001D01*
Y844999D01*
X473005Y864002D02*
Y875998D01*
X479003D01*
X481002Y873999D01*
Y870000D01*
X479003Y868001D01*
X473005D01*
X477004D02*
X481002Y864002D01*
X485001D02*
X489000D01*
X487000D01*
Y875998D01*
X485001Y873999D01*
X502995Y864002D02*
X494998D01*
X502995Y871999D01*
Y873999D01*
X500996Y875998D01*
X496997D01*
X494998Y873999D01*
X473005Y893002D02*
Y904998D01*
X479003D01*
X481002Y902999D01*
Y899000D01*
X479003Y897001D01*
X473005D01*
X477004D02*
X481002Y893002D01*
X485001D02*
X489000D01*
X487000D01*
Y904998D01*
X485001Y902999D01*
X494998D02*
X496997Y904998D01*
X500996D01*
X502995Y902999D01*
Y900999D01*
X500996Y899000D01*
X498996D01*
X500996D01*
X502995Y897001D01*
Y895001D01*
X500996Y893002D01*
X496997D01*
X494998Y895001D01*
X558003Y830002D02*
Y841998D01*
X564001D01*
X566001Y839999D01*
Y836000D01*
X564001Y834001D01*
X558003D01*
X562002D02*
X566001Y830002D01*
X569999Y841998D02*
X577997D01*
Y839999D01*
X569999Y832001D01*
Y830002D01*
X416002Y776999D02*
X414003Y778998D01*
X410004D01*
X408005Y776999D01*
Y769001D01*
X410004Y767002D01*
X414003D01*
X416002Y769001D01*
X420001Y767002D02*
X424000D01*
X422000D01*
Y778998D01*
X420001Y776999D01*
X429998D02*
X431997Y778998D01*
X435996D01*
X437995Y776999D01*
Y769001D01*
X435996Y767002D01*
X431997D01*
X429998Y769001D01*
Y776999D01*
X318001Y774002D02*
X316002Y772002D01*
Y768003D01*
X318001Y766004D01*
X325999D01*
X327998Y768003D01*
Y772002D01*
X325999Y774002D01*
X327998Y778000D02*
Y781999D01*
Y780000D01*
X316002D01*
X318001Y778000D01*
X327998Y787997D02*
Y791996D01*
Y789996D01*
X316002D01*
X318001Y787997D01*
X412003Y717998D02*
X420001D01*
X416002D01*
Y706002D01*
X431997Y717998D02*
X423999D01*
Y712000D01*
X427998Y713999D01*
X429997D01*
X431997Y712000D01*
Y708001D01*
X429997Y706002D01*
X425999D01*
X423999Y708001D01*
X315002Y710005D02*
X326998D01*
Y718002D01*
Y722001D02*
Y726000D01*
Y724000D01*
X315002D01*
X317001Y722001D01*
X326998Y737996D02*
X315002D01*
X321000Y731998D01*
Y739995D01*
X362001Y680999D02*
X360001Y682998D01*
X356003D01*
X354003Y680999D01*
Y673001D01*
X356003Y671002D01*
X360001D01*
X362001Y673001D01*
X365999D02*
X367999Y671002D01*
X371997D01*
X373997Y673001D01*
Y680999D01*
X371997Y682998D01*
X367999D01*
X365999Y680999D01*
Y678999D01*
X367999Y677000D01*
X373997D01*
X352003Y633002D02*
Y644998D01*
X358001D01*
X360001Y642999D01*
Y639000D01*
X358001Y637001D01*
X352003D01*
X356002D02*
X360001Y633002D01*
X363999Y635001D02*
X365999Y633002D01*
X369997D01*
X371997Y635001D01*
Y642999D01*
X369997Y644998D01*
X365999D01*
X363999Y642999D01*
Y640999D01*
X365999Y639000D01*
X371997D01*
X384005Y579002D02*
Y590998D01*
X390003D01*
X392003Y588999D01*
Y585000D01*
X390003Y583001D01*
X384005D01*
X388004D02*
X392003Y579002D01*
X396001Y588999D02*
X398001Y590998D01*
X401999D01*
X403999Y588999D01*
Y586999D01*
X401999Y585000D01*
X400000D01*
X401999D01*
X403999Y583001D01*
Y581001D01*
X401999Y579002D01*
X398001D01*
X396001Y581001D01*
X407997D02*
X409997Y579002D01*
X413996D01*
X415995Y581001D01*
Y588999D01*
X413996Y590998D01*
X409997D01*
X407997Y588999D01*
Y586999D01*
X409997Y585000D01*
X415995D01*
X566001Y778001D02*
X564002Y776001D01*
Y772003D01*
X566001Y770003D01*
X573999D01*
X575998Y772003D01*
Y776001D01*
X573999Y778001D01*
X564002Y789997D02*
Y781999D01*
X570000D01*
X568001Y785998D01*
Y787997D01*
X570000Y789997D01*
X573999D01*
X575998Y787997D01*
Y783999D01*
X573999Y781999D01*
X475001Y693001D02*
X473002Y691001D01*
Y687003D01*
X475001Y685003D01*
X482999D01*
X484998Y687003D01*
Y691001D01*
X482999Y693001D01*
X473002Y696999D02*
Y704997D01*
X475001D01*
X482999Y696999D01*
X484998D01*
X644002Y658003D02*
Y666001D01*
Y662002D01*
X655998D01*
Y675997D02*
X644002D01*
X650000Y669999D01*
Y677997D01*
X594002Y658003D02*
Y666001D01*
Y662002D01*
X605998D01*
X596001Y669999D02*
X594002Y671999D01*
Y675997D01*
X596001Y677997D01*
X598001D01*
X600000Y675997D01*
Y673998D01*
Y675997D01*
X601999Y677997D01*
X603999D01*
X605998Y675997D01*
Y671999D01*
X603999Y669999D01*
X500001Y663001D02*
X498002Y661001D01*
Y657003D01*
X500001Y655003D01*
X507999D01*
X509998Y657003D01*
Y661001D01*
X507999Y663001D01*
X498002Y674997D02*
X500001Y670998D01*
X504000Y666999D01*
X507999D01*
X509998Y668999D01*
Y672997D01*
X507999Y674997D01*
X505999D01*
X504000Y672997D01*
Y666999D01*
X559005Y615998D02*
Y604002D01*
X567002D01*
X571001D02*
X575000D01*
X573000D01*
Y615998D01*
X571001Y613999D01*
X580998D02*
X582997Y615998D01*
X586996D01*
X588995Y613999D01*
Y611999D01*
X586996Y610000D01*
X584996D01*
X586996D01*
X588995Y608001D01*
Y606001D01*
X586996Y604002D01*
X582997D01*
X580998Y606001D01*
X502001Y500999D02*
X500001Y502998D01*
X496003D01*
X494003Y500999D01*
Y493001D01*
X496003Y491002D01*
X500001D01*
X502001Y493001D01*
X505999Y500999D02*
X507999Y502998D01*
X511997D01*
X513997Y500999D01*
Y498999D01*
X511997Y497000D01*
X513997Y495001D01*
Y493001D01*
X511997Y491002D01*
X507999D01*
X505999Y493001D01*
Y495001D01*
X507999Y497000D01*
X505999Y498999D01*
Y500999D01*
X507999Y497000D02*
X511997D01*
X571003Y510998D02*
Y499002D01*
X579001D01*
X590997Y510998D02*
X586998Y508999D01*
X582999Y505000D01*
Y501001D01*
X584999Y499002D01*
X588997D01*
X590997Y501001D01*
Y503001D01*
X588997Y505000D01*
X582999D01*
X654998Y479003D02*
X643002D01*
Y485001D01*
X645001Y487001D01*
X649000D01*
X650999Y485001D01*
Y479003D01*
Y483002D02*
X654998Y487001D01*
X643002Y498997D02*
X645001Y494998D01*
X649000Y490999D01*
X652999D01*
X654998Y492999D01*
Y496997D01*
X652999Y498997D01*
X650999D01*
X649000Y496997D01*
Y490999D01*
X660998Y807003D02*
X649002D01*
Y813001D01*
X651001Y815001D01*
X655000D01*
X656999Y813001D01*
Y807003D01*
Y811002D02*
X660998Y815001D01*
X649002Y826997D02*
Y818999D01*
X655000D01*
X653001Y822998D01*
Y824997D01*
X655000Y826997D01*
X658999D01*
X660998Y824997D01*
Y820999D01*
X658999Y818999D01*
X607998Y833003D02*
X596002D01*
Y839001D01*
X598001Y841001D01*
X602000D01*
X603999Y839001D01*
Y833003D01*
Y837002D02*
X607998Y841001D01*
X598001Y844999D02*
X596002Y846999D01*
Y850997D01*
X598001Y852997D01*
X600001D01*
X602000Y850997D01*
X603999Y852997D01*
X605999D01*
X607998Y850997D01*
Y846999D01*
X605999Y844999D01*
X603999D01*
X602000Y846999D01*
X600001Y844999D01*
X598001D01*
X602000Y846999D02*
Y850997D01*
X724002Y982001D02*
Y978002D01*
Y980001D01*
X733999D01*
X735998Y978002D01*
Y976003D01*
X733999Y974003D01*
X735998Y993997D02*
Y985999D01*
X728001Y993997D01*
X726001D01*
X724002Y991997D01*
Y987999D01*
X726001Y985999D01*
X853001Y984000D02*
X851002Y982001D01*
Y978002D01*
X853001Y976003D01*
X855001D01*
X857000Y978002D01*
Y982001D01*
X858999Y984000D01*
X860999D01*
X862998Y982001D01*
Y978002D01*
X860999Y976003D01*
X862998Y987999D02*
Y991997D01*
Y989998D01*
X851002D01*
X853001Y987999D01*
X889003Y883998D02*
Y872002D01*
X895001D01*
X897001Y874001D01*
Y881999D01*
X895001Y883998D01*
X889003D01*
X908997Y872002D02*
X900999D01*
X908997Y879999D01*
Y881999D01*
X906997Y883998D01*
X902999D01*
X900999Y881999D01*
X889003Y851998D02*
Y840002D01*
X895001D01*
X897001Y842001D01*
Y849999D01*
X895001Y851998D01*
X889003D01*
X900999Y849999D02*
X902999Y851998D01*
X906997D01*
X908997Y849999D01*
Y847999D01*
X906997Y846000D01*
X904998D01*
X906997D01*
X908997Y844001D01*
Y842001D01*
X906997Y840002D01*
X902999D01*
X900999Y842001D01*
X747003Y774999D02*
X745003Y776998D01*
X741004D01*
X739005Y774999D01*
Y767001D01*
X741004Y765002D01*
X745003D01*
X747003Y767001D01*
X751001Y774999D02*
X753001Y776998D01*
X756999D01*
X758999Y774999D01*
Y772999D01*
X756999Y771000D01*
X755000D01*
X756999D01*
X758999Y769001D01*
Y767001D01*
X756999Y765002D01*
X753001D01*
X751001Y767001D01*
X762997Y774999D02*
X764997Y776998D01*
X768996D01*
X770995Y774999D01*
Y767001D01*
X768996Y765002D01*
X764997D01*
X762997Y767001D01*
Y774999D01*
X916001Y797003D02*
X914002Y795003D01*
Y791004D01*
X916001Y789005D01*
X923999D01*
X925998Y791004D01*
Y795003D01*
X923999Y797003D01*
X925998Y808999D02*
Y801001D01*
X918001Y808999D01*
X916001D01*
X914002Y806999D01*
Y803001D01*
X916001Y801001D01*
X923999Y812997D02*
X925998Y814997D01*
Y818995D01*
X923999Y820995D01*
X916001D01*
X914002Y818995D01*
Y814997D01*
X916001Y812997D01*
X918001D01*
X920000Y814997D01*
Y820995D01*
X930001Y887002D02*
X928002Y885003D01*
Y881004D01*
X930001Y879005D01*
X937999D01*
X939998Y881004D01*
Y885003D01*
X937999Y887002D01*
X939998Y898998D02*
Y891001D01*
X932001Y898998D01*
X930001D01*
X928002Y896999D01*
Y893000D01*
X930001Y891001D01*
X939998Y902997D02*
Y906995D01*
Y904996D01*
X928002D01*
X930001Y902997D01*
X1057001Y887003D02*
X1055002Y885003D01*
Y881004D01*
X1057001Y879005D01*
X1064999D01*
X1066998Y881004D01*
Y885003D01*
X1064999Y887003D01*
X1066998Y898999D02*
Y891001D01*
X1059001Y898999D01*
X1057001D01*
X1055002Y896999D01*
Y893001D01*
X1057001Y891001D01*
X1066998Y910995D02*
Y902997D01*
X1059001Y910995D01*
X1057001D01*
X1055002Y908996D01*
Y904997D01*
X1057001Y902997D01*
X1043998Y840997D02*
X1034001D01*
X1032002Y838997D01*
Y834999D01*
X1034001Y832999D01*
X1043998D01*
X1032002Y821003D02*
Y829001D01*
X1039999Y821003D01*
X1041999D01*
X1043998Y823003D01*
Y827001D01*
X1041999Y829001D01*
X951002Y825003D02*
X960999D01*
X962998Y827002D01*
Y831001D01*
X960999Y833000D01*
X951002D01*
X962998Y836999D02*
Y840997D01*
Y838998D01*
X951002D01*
X953001Y836999D01*
X769002Y746999D02*
X767003Y748998D01*
X763004D01*
X761005Y746999D01*
Y739001D01*
X763004Y737002D01*
X767003D01*
X769002Y739001D01*
X773001Y737002D02*
X777000D01*
X775000D01*
Y748998D01*
X773001Y746999D01*
X782998Y739001D02*
X784997Y737002D01*
X788996D01*
X790995Y739001D01*
Y746999D01*
X788996Y748998D01*
X784997D01*
X782998Y746999D01*
Y744999D01*
X784997Y743000D01*
X790995D01*
X1204003Y744999D02*
X1202003Y746998D01*
X1198005D01*
X1196005Y744999D01*
Y737001D01*
X1198005Y735002D01*
X1202003D01*
X1204003Y737001D01*
X1215999Y735002D02*
X1208001D01*
X1215999Y742999D01*
Y744999D01*
X1213999Y746998D01*
X1210001D01*
X1208001Y744999D01*
X1219997D02*
X1221997Y746998D01*
X1225995D01*
X1227995Y744999D01*
Y737001D01*
X1225995Y735002D01*
X1221997D01*
X1219997Y737001D01*
Y744999D01*
X1193005Y620002D02*
Y631998D01*
X1199003D01*
X1201003Y629999D01*
Y626000D01*
X1199003Y624001D01*
X1193005D01*
X1197004D02*
X1201003Y620002D01*
X1205001Y629999D02*
X1207001Y631998D01*
X1210999D01*
X1212999Y629999D01*
Y627999D01*
X1210999Y626000D01*
X1209000D01*
X1210999D01*
X1212999Y624001D01*
Y622001D01*
X1210999Y620002D01*
X1207001D01*
X1205001Y622001D01*
X1216997Y629999D02*
X1218997Y631998D01*
X1222996D01*
X1224995Y629999D01*
Y627999D01*
X1222996Y626000D01*
X1224995Y624001D01*
Y622001D01*
X1222996Y620002D01*
X1218997D01*
X1216997Y622001D01*
Y624001D01*
X1218997Y626000D01*
X1216997Y627999D01*
Y629999D01*
X1218997Y626000D02*
X1222996D01*
X1193005Y591002D02*
Y602998D01*
X1199003D01*
X1201003Y600999D01*
Y597000D01*
X1199003Y595001D01*
X1193005D01*
X1197004D02*
X1201003Y591002D01*
X1205001Y600999D02*
X1207001Y602998D01*
X1210999D01*
X1212999Y600999D01*
Y598999D01*
X1210999Y597000D01*
X1209000D01*
X1210999D01*
X1212999Y595001D01*
Y593001D01*
X1210999Y591002D01*
X1207001D01*
X1205001Y593001D01*
X1224995Y602998D02*
X1220996Y600999D01*
X1216997Y597000D01*
Y593001D01*
X1218997Y591002D01*
X1222996D01*
X1224995Y593001D01*
Y595001D01*
X1222996Y597000D01*
X1216997D01*
X1215003Y559999D02*
X1213003Y561998D01*
X1209005D01*
X1207005Y559999D01*
Y552001D01*
X1209005Y550002D01*
X1213003D01*
X1215003Y552001D01*
X1226999Y550002D02*
X1219001D01*
X1226999Y557999D01*
Y559999D01*
X1224999Y561998D01*
X1221001D01*
X1219001Y559999D01*
X1230997Y561998D02*
X1238995D01*
Y559999D01*
X1230997Y552001D01*
Y550002D01*
X1192005Y515002D02*
Y526998D01*
X1198003D01*
X1200003Y524999D01*
Y521000D01*
X1198003Y519001D01*
X1192005D01*
X1196004D02*
X1200003Y515002D01*
X1204001Y524999D02*
X1206001Y526998D01*
X1209999D01*
X1211999Y524999D01*
Y522999D01*
X1209999Y521000D01*
X1208000D01*
X1209999D01*
X1211999Y519001D01*
Y517001D01*
X1209999Y515002D01*
X1206001D01*
X1204001Y517001D01*
X1223995Y526998D02*
X1215997D01*
Y521000D01*
X1219996Y522999D01*
X1221995D01*
X1223995Y521000D01*
Y517001D01*
X1221995Y515002D01*
X1217997D01*
X1215997Y517001D01*
X1515001Y510999D02*
X1513001Y512998D01*
X1509003D01*
X1507003Y510999D01*
Y503001D01*
X1509003Y501002D01*
X1513001D01*
X1515001Y503001D01*
X1518999Y510999D02*
X1520999Y512998D01*
X1524997D01*
X1526997Y510999D01*
Y508999D01*
X1524997Y507000D01*
X1522998D01*
X1524997D01*
X1526997Y505001D01*
Y503001D01*
X1524997Y501002D01*
X1520999D01*
X1518999Y503001D01*
X1590002Y564003D02*
Y572001D01*
Y568002D01*
X1601998D01*
Y583997D02*
Y575999D01*
X1594001Y583997D01*
X1592001D01*
X1590002Y581997D01*
Y577999D01*
X1592001Y575999D01*
X1540002Y565003D02*
Y573000D01*
Y569001D01*
X1551998D01*
Y576999D02*
Y580997D01*
Y578998D01*
X1540002D01*
X1542001Y576999D01*
X1667001Y674999D02*
X1665001Y676998D01*
X1661003D01*
X1659003Y674999D01*
Y667001D01*
X1661003Y665002D01*
X1665001D01*
X1667001Y667001D01*
X1676997Y665002D02*
Y676998D01*
X1670999Y671000D01*
X1678997D01*
X1540003Y650002D02*
Y661998D01*
X1546001D01*
X1548001Y659999D01*
Y656000D01*
X1546001Y654001D01*
X1540003D01*
X1544002D02*
X1548001Y650002D01*
X1551999Y659999D02*
X1553999Y661998D01*
X1557997D01*
X1559997Y659999D01*
Y657999D01*
X1557997Y656000D01*
X1555998D01*
X1557997D01*
X1559997Y654001D01*
Y652001D01*
X1557997Y650002D01*
X1553999D01*
X1551999Y652001D01*
X1525998Y689003D02*
X1514002D01*
Y695001D01*
X1516001Y697000D01*
X1520000D01*
X1521999Y695001D01*
Y689003D01*
Y693001D02*
X1525998Y697000D01*
Y700999D02*
Y704997D01*
Y702998D01*
X1514002D01*
X1516001Y700999D01*
X1496998Y690003D02*
X1485002D01*
Y696001D01*
X1487001Y698001D01*
X1491000D01*
X1492999Y696001D01*
Y690003D01*
Y694002D02*
X1496998Y698001D01*
Y709997D02*
Y701999D01*
X1489001Y709997D01*
X1487001D01*
X1485002Y707997D01*
Y703999D01*
X1487001Y701999D01*
X1449000Y992998D02*
X1445001D01*
X1447001D01*
Y983001D01*
X1445001Y981002D01*
X1443002D01*
X1441003Y983001D01*
X1452999Y981002D02*
X1456997D01*
X1454998D01*
Y992998D01*
X1452999Y990999D01*
X1761003Y840002D02*
Y847999D01*
X1765002Y851998D01*
X1769001Y847999D01*
Y840002D01*
Y846000D01*
X1761003D01*
X1780997Y840002D02*
X1772999D01*
X1780997Y847999D01*
Y849999D01*
X1778997Y851998D01*
X1774999D01*
X1772999Y849999D01*
X24445Y839402D02*
Y847399D01*
X28444Y851398D01*
X32443Y847399D01*
Y839402D01*
Y845400D01*
X24445D01*
X36441Y839402D02*
X40440D01*
X38441D01*
Y851398D01*
X36441Y849399D01*
X1752003Y757998D02*
Y746002D01*
X1760000D01*
X1763999D02*
X1767997D01*
X1765998D01*
Y757998D01*
X1763999Y755999D01*
X1753003Y650998D02*
Y639002D01*
X1761001D01*
X1772997D02*
X1764999D01*
X1772997Y646999D01*
Y648999D01*
X1770997Y650998D01*
X1766999D01*
X1764999Y648999D01*
X1753003Y542998D02*
Y531002D01*
X1761001D01*
X1764999Y540999D02*
X1766999Y542998D01*
X1770997D01*
X1772997Y540999D01*
Y538999D01*
X1770997Y537000D01*
X1768998D01*
X1770997D01*
X1772997Y535001D01*
Y533001D01*
X1770997Y531002D01*
X1766999D01*
X1764999Y533001D01*
X1753003Y435998D02*
Y424002D01*
X1761001D01*
X1770997D02*
Y435998D01*
X1764999Y430000D01*
X1772997D01*
X1677998Y478003D02*
X1666002D01*
Y484001D01*
X1668001Y486001D01*
X1672000D01*
X1673999Y484001D01*
Y478003D01*
Y482002D02*
X1677998Y486001D01*
Y495997D02*
X1666002D01*
X1672000Y489999D01*
Y497997D01*
X1721002Y300005D02*
X1732998D01*
Y308002D01*
Y312001D02*
Y316000D01*
Y314000D01*
X1721002D01*
X1723001Y312001D01*
X1732998Y329995D02*
Y321998D01*
X1725001Y329995D01*
X1723001D01*
X1721002Y327996D01*
Y323997D01*
X1723001Y321998D01*
X1622001Y399000D02*
X1620002Y397001D01*
Y393002D01*
X1622001Y391003D01*
X1629999D01*
X1631998Y393002D01*
Y397001D01*
X1629999Y399000D01*
X1631998Y402999D02*
Y406997D01*
Y404998D01*
X1620002D01*
X1622001Y402999D01*
X1640001Y331999D02*
X1638001Y333998D01*
X1634003D01*
X1632003Y331999D01*
Y324001D01*
X1634003Y322002D01*
X1638001D01*
X1640001Y324001D01*
X1651997Y322002D02*
X1643999D01*
X1651997Y329999D01*
Y331999D01*
X1649997Y333998D01*
X1645999D01*
X1643999Y331999D01*
X1605998Y376005D02*
X1594002D01*
Y382003D01*
X1596001Y384003D01*
X1600000D01*
X1601999Y382003D01*
Y376005D01*
Y380004D02*
X1605998Y384003D01*
Y393999D02*
X1594002D01*
X1600000Y388001D01*
Y395999D01*
X1605998Y405995D02*
X1594002D01*
X1600000Y399997D01*
Y407995D01*
X1583998Y375005D02*
X1572002D01*
Y381003D01*
X1574001Y383003D01*
X1578000D01*
X1579999Y381003D01*
Y375005D01*
Y379004D02*
X1583998Y383003D01*
Y392999D02*
X1572002D01*
X1578000Y387001D01*
Y394999D01*
X1572002Y406995D02*
Y398997D01*
X1578000D01*
X1576001Y402996D01*
Y404995D01*
X1578000Y406995D01*
X1581999D01*
X1583998Y404995D01*
Y400997D01*
X1581999Y398997D01*
X1422002Y239999D02*
X1420003Y241998D01*
X1416004D01*
X1414005Y239999D01*
Y232001D01*
X1416004Y230002D01*
X1420003D01*
X1422002Y232001D01*
X1426001Y239999D02*
X1428000Y241998D01*
X1431999D01*
X1433998Y239999D01*
Y237999D01*
X1431999Y236000D01*
X1429999D01*
X1431999D01*
X1433998Y234001D01*
Y232001D01*
X1431999Y230002D01*
X1428000D01*
X1426001Y232001D01*
X1437997Y230002D02*
X1441996D01*
X1439996D01*
Y241998D01*
X1437997Y239999D01*
X1417003Y360998D02*
Y351001D01*
X1419003Y349002D01*
X1423001D01*
X1425001Y351001D01*
Y360998D01*
X1434997Y349002D02*
Y360998D01*
X1428999Y355000D01*
X1436997D01*
X1403005Y377002D02*
Y388998D01*
X1409003D01*
X1411003Y386999D01*
Y383000D01*
X1409003Y381001D01*
X1403005D01*
X1407004D02*
X1411003Y377002D01*
X1420999D02*
Y388998D01*
X1415001Y383000D01*
X1422999D01*
X1434995Y377002D02*
X1426997D01*
X1434995Y384999D01*
Y386999D01*
X1432995Y388998D01*
X1428997D01*
X1426997Y386999D01*
X1403005Y406002D02*
Y417998D01*
X1409003D01*
X1411003Y415999D01*
Y412000D01*
X1409003Y410001D01*
X1403005D01*
X1407004D02*
X1411003Y406002D01*
X1420999D02*
Y417998D01*
X1415001Y412000D01*
X1422999D01*
X1426997Y415999D02*
X1428997Y417998D01*
X1432995D01*
X1434995Y415999D01*
Y413999D01*
X1432995Y412000D01*
X1430996D01*
X1432995D01*
X1434995Y410001D01*
Y408001D01*
X1432995Y406002D01*
X1428997D01*
X1426997Y408001D01*
X1339002Y338003D02*
X1350998D01*
Y344001D01*
X1348999Y346001D01*
X1341001D01*
X1339002Y344001D01*
Y338003D01*
X1350998Y355997D02*
X1339002D01*
X1345000Y349999D01*
Y357997D01*
X1320998Y326005D02*
X1309002D01*
Y332003D01*
X1311001Y334003D01*
X1315000D01*
X1316999Y332003D01*
Y326005D01*
Y330004D02*
X1320998Y334003D01*
Y345999D02*
Y338001D01*
X1313001Y345999D01*
X1311001D01*
X1309002Y343999D01*
Y340001D01*
X1311001Y338001D01*
X1320998Y355995D02*
X1309002D01*
X1315000Y349997D01*
Y357995D01*
X1291998Y325005D02*
X1280002D01*
Y331003D01*
X1282001Y333003D01*
X1286000D01*
X1287999Y331003D01*
Y325005D01*
Y329004D02*
X1291998Y333003D01*
Y344999D02*
Y337001D01*
X1284001Y344999D01*
X1282001D01*
X1280002Y342999D01*
Y339001D01*
X1282001Y337001D01*
Y348997D02*
X1280002Y350997D01*
Y354995D01*
X1282001Y356995D01*
X1284001D01*
X1286000Y354995D01*
Y352996D01*
Y354995D01*
X1287999Y356995D01*
X1289999D01*
X1291998Y354995D01*
Y350997D01*
X1289999Y348997D01*
X1240003Y483999D02*
X1238003Y485998D01*
X1234005D01*
X1232005Y483999D01*
Y476001D01*
X1234005Y474002D01*
X1238003D01*
X1240003Y476001D01*
X1251999Y474002D02*
X1244001D01*
X1251999Y481999D01*
Y483999D01*
X1249999Y485998D01*
X1246001D01*
X1244001Y483999D01*
X1255997D02*
X1257997Y485998D01*
X1261995D01*
X1263995Y483999D01*
Y481999D01*
X1261995Y480000D01*
X1259996D01*
X1261995D01*
X1263995Y478001D01*
Y476001D01*
X1261995Y474002D01*
X1257997D01*
X1255997Y476001D01*
X1126003Y347999D02*
X1124003Y349998D01*
X1120005D01*
X1118005Y347999D01*
Y340001D01*
X1120005Y338002D01*
X1124003D01*
X1126003Y340001D01*
X1137999Y338002D02*
X1130001D01*
X1137999Y345999D01*
Y347999D01*
X1135999Y349998D01*
X1132001D01*
X1130001Y347999D01*
X1147996Y338002D02*
Y349998D01*
X1141997Y344000D01*
X1149995D01*
X1032003Y487998D02*
Y478001D01*
X1034003Y476002D01*
X1038001D01*
X1040001Y478001D01*
Y487998D01*
X1043999Y485999D02*
X1045999Y487998D01*
X1049997D01*
X1051997Y485999D01*
Y483999D01*
X1049997Y482000D01*
X1047998D01*
X1049997D01*
X1051997Y480001D01*
Y478001D01*
X1049997Y476002D01*
X1045999D01*
X1043999Y478001D01*
X939003Y445999D02*
X937003Y447998D01*
X933005D01*
X931005Y445999D01*
Y438001D01*
X933005Y436002D01*
X937003D01*
X939003Y438001D01*
X950999Y436002D02*
X943001D01*
X950999Y443999D01*
Y445999D01*
X948999Y447998D01*
X945001D01*
X943001Y445999D01*
X954997D02*
X956997Y447998D01*
X960995D01*
X962995Y445999D01*
Y443999D01*
X960995Y442000D01*
X962995Y440001D01*
Y438001D01*
X960995Y436002D01*
X956997D01*
X954997Y438001D01*
Y440001D01*
X956997Y442000D01*
X954997Y443999D01*
Y445999D01*
X956997Y442000D02*
X960995D01*
X760005Y493002D02*
Y504998D01*
X766003D01*
X768003Y502999D01*
Y499000D01*
X766003Y497001D01*
X760005D01*
X764004D02*
X768003Y493002D01*
X772001Y502999D02*
X774001Y504998D01*
X777999D01*
X779999Y502999D01*
Y500999D01*
X777999Y499000D01*
X776000D01*
X777999D01*
X779999Y497001D01*
Y495001D01*
X777999Y493002D01*
X774001D01*
X772001Y495001D01*
X783997Y504998D02*
X791995D01*
Y502999D01*
X783997Y495001D01*
Y493002D01*
X760005Y466002D02*
Y477998D01*
X766003D01*
X768003Y475999D01*
Y472000D01*
X766003Y470001D01*
X760005D01*
X764004D02*
X768003Y466002D01*
X772001Y475999D02*
X774001Y477998D01*
X777999D01*
X779999Y475999D01*
Y473999D01*
X777999Y472000D01*
X776000D01*
X777999D01*
X779999Y470001D01*
Y468001D01*
X777999Y466002D01*
X774001D01*
X772001Y468001D01*
X783997Y475999D02*
X785997Y477998D01*
X789995D01*
X791995Y475999D01*
Y468001D01*
X789995Y466002D01*
X785997D01*
X783997Y468001D01*
Y475999D01*
X773003Y448998D02*
Y437002D01*
X779001D01*
X781001Y439001D01*
Y446999D01*
X779001Y448998D01*
X773003D01*
X792997D02*
X784999D01*
Y443000D01*
X788998Y444999D01*
X790997D01*
X792997Y443000D01*
Y439001D01*
X790997Y437002D01*
X786999D01*
X784999Y439001D01*
X760005Y408002D02*
Y419998D01*
X766003D01*
X768003Y417999D01*
Y414000D01*
X766003Y412001D01*
X760005D01*
X764004D02*
X768003Y408002D01*
X779999D02*
X772001D01*
X779999Y415999D01*
Y417999D01*
X777999Y419998D01*
X774001D01*
X772001Y417999D01*
X783997Y410001D02*
X785997Y408002D01*
X789995D01*
X791995Y410001D01*
Y417999D01*
X789995Y419998D01*
X785997D01*
X783997Y417999D01*
Y415999D01*
X785997Y414000D01*
X791995D01*
X760005Y378002D02*
Y389998D01*
X766003D01*
X768003Y387999D01*
Y384000D01*
X766003Y382001D01*
X760005D01*
X764004D02*
X768003Y378002D01*
X779999D02*
X772001D01*
X779999Y385999D01*
Y387999D01*
X777999Y389998D01*
X774001D01*
X772001Y387999D01*
X783997Y389998D02*
X791995D01*
Y387999D01*
X783997Y380001D01*
Y378002D01*
X760005Y350002D02*
Y361998D01*
X766003D01*
X768003Y359999D01*
Y356000D01*
X766003Y354001D01*
X760005D01*
X764004D02*
X768003Y350002D01*
X779999D02*
X772001D01*
X779999Y357999D01*
Y359999D01*
X777999Y361998D01*
X774001D01*
X772001Y359999D01*
X791995Y361998D02*
X783997D01*
Y356000D01*
X787996Y357999D01*
X789995D01*
X791995Y356000D01*
Y352001D01*
X789995Y350002D01*
X785997D01*
X783997Y352001D01*
X760005Y322002D02*
Y333998D01*
X766003D01*
X768003Y331999D01*
Y328000D01*
X766003Y326001D01*
X760005D01*
X764004D02*
X768003Y322002D01*
X779999D02*
X772001D01*
X779999Y329999D01*
Y331999D01*
X777999Y333998D01*
X774001D01*
X772001Y331999D01*
X783997D02*
X785997Y333998D01*
X789995D01*
X791995Y331999D01*
Y329999D01*
X789995Y328000D01*
X791995Y326001D01*
Y324001D01*
X789995Y322002D01*
X785997D01*
X783997Y324001D01*
Y326001D01*
X785997Y328000D01*
X783997Y329999D01*
Y331999D01*
X785997Y328000D02*
X789995D01*
X760005Y292002D02*
Y303998D01*
X766003D01*
X768003Y301999D01*
Y298000D01*
X766003Y296001D01*
X760005D01*
X764004D02*
X768003Y292002D01*
X772001Y301999D02*
X774001Y303998D01*
X777999D01*
X779999Y301999D01*
Y299999D01*
X777999Y298000D01*
X776000D01*
X777999D01*
X779999Y296001D01*
Y294001D01*
X777999Y292002D01*
X774001D01*
X772001Y294001D01*
X791995Y292002D02*
X783997D01*
X791995Y299999D01*
Y301999D01*
X789995Y303998D01*
X785997D01*
X783997Y301999D01*
X1193005Y278002D02*
Y289998D01*
X1199003D01*
X1201002Y287999D01*
Y284000D01*
X1199003Y282001D01*
X1193005D01*
X1197003D02*
X1201002Y278002D01*
X1205001Y287999D02*
X1207000Y289998D01*
X1210999D01*
X1212998Y287999D01*
Y285999D01*
X1210999Y284000D01*
X1208999D01*
X1210999D01*
X1212998Y282001D01*
Y280001D01*
X1210999Y278002D01*
X1207000D01*
X1205001Y280001D01*
X1216997Y278002D02*
X1220995D01*
X1218996D01*
Y289998D01*
X1216997Y287999D01*
X1194005Y248002D02*
Y259998D01*
X1200003D01*
X1202003Y257999D01*
Y254000D01*
X1200003Y252001D01*
X1194005D01*
X1198004D02*
X1202003Y248002D01*
X1206001Y257999D02*
X1208001Y259998D01*
X1211999D01*
X1213999Y257999D01*
Y255999D01*
X1211999Y254000D01*
X1210000D01*
X1211999D01*
X1213999Y252001D01*
Y250001D01*
X1211999Y248002D01*
X1208001D01*
X1206001Y250001D01*
X1223996Y248002D02*
Y259998D01*
X1217997Y254000D01*
X1225995D01*
X1194005Y220002D02*
Y231998D01*
X1200003D01*
X1202003Y229999D01*
Y226000D01*
X1200003Y224001D01*
X1194005D01*
X1198004D02*
X1202003Y220002D01*
X1213999D02*
X1206001D01*
X1213999Y227999D01*
Y229999D01*
X1211999Y231998D01*
X1208001D01*
X1206001Y229999D01*
X1225995Y231998D02*
X1221996Y229999D01*
X1217997Y226000D01*
Y222001D01*
X1219997Y220002D01*
X1223996D01*
X1225995Y222001D01*
Y224001D01*
X1223996Y226000D01*
X1217997D01*
X1194415Y191797D02*
Y203793D01*
X1200413D01*
X1202412Y201794D01*
Y197795D01*
X1200413Y195796D01*
X1194415D01*
X1198413D02*
X1202412Y191797D01*
X1206411Y201794D02*
X1208410Y203793D01*
X1212409D01*
X1214408Y201794D01*
Y199794D01*
X1212409Y197795D01*
X1210410D01*
X1212409D01*
X1214408Y195796D01*
Y193796D01*
X1212409Y191797D01*
X1208410D01*
X1206411Y193796D01*
X1218407Y201794D02*
X1220406Y203793D01*
X1224405D01*
X1226404Y201794D01*
Y199794D01*
X1224405Y197795D01*
X1222406D01*
X1224405D01*
X1226404Y195796D01*
Y193796D01*
X1224405Y191797D01*
X1220406D01*
X1218407Y193796D01*
X1071003Y162999D02*
X1069003Y164998D01*
X1065005D01*
X1063005Y162999D01*
Y155001D01*
X1065005Y153002D01*
X1069003D01*
X1071003Y155001D01*
X1082999Y153002D02*
X1075001D01*
X1082999Y160999D01*
Y162999D01*
X1080999Y164998D01*
X1077001D01*
X1075001Y162999D01*
X1094995Y164998D02*
X1090996Y162999D01*
X1086997Y159000D01*
Y155001D01*
X1088997Y153002D01*
X1092996D01*
X1094995Y155001D01*
Y157001D01*
X1092996Y159000D01*
X1086997D01*
X1720001Y260998D02*
X1716002D01*
X1718001D01*
Y251001D01*
X1716002Y249002D01*
X1714003D01*
X1712003Y251001D01*
X1729997Y249002D02*
Y260998D01*
X1723999Y255000D01*
X1731997D01*
X1299003Y78002D02*
Y89998D01*
X1305001D01*
X1307001Y87999D01*
Y84000D01*
X1305001Y82001D01*
X1299003D01*
X1316997Y78002D02*
Y89998D01*
X1310999Y84000D01*
X1318997D01*
X999003Y78002D02*
Y89998D01*
X1005001D01*
X1007001Y87999D01*
Y84000D01*
X1005001Y82001D01*
X999003D01*
X1010999Y87999D02*
X1012999Y89998D01*
X1016997D01*
X1018997Y87999D01*
Y85999D01*
X1016997Y84000D01*
X1014998D01*
X1016997D01*
X1018997Y82001D01*
Y80001D01*
X1016997Y78002D01*
X1012999D01*
X1010999Y80001D01*
X699003Y78002D02*
Y89998D01*
X705001D01*
X707001Y87999D01*
Y84000D01*
X705001Y82001D01*
X699003D01*
X718997Y78002D02*
X710999D01*
X718997Y85999D01*
Y87999D01*
X716997Y89998D01*
X712999D01*
X710999Y87999D01*
X398003Y78002D02*
Y89998D01*
X404001D01*
X406000Y87999D01*
Y84000D01*
X404001Y82001D01*
X398003D01*
X409999Y78002D02*
X413997D01*
X411998D01*
Y89998D01*
X409999Y87999D01*
X314003Y72998D02*
Y61002D01*
X320001D01*
X322001Y63001D01*
Y70999D01*
X320001Y72998D01*
X314003D01*
X333997D02*
X329998Y70999D01*
X325999Y67000D01*
Y63001D01*
X327999Y61002D01*
X331997D01*
X333997Y63001D01*
Y65001D01*
X331997Y67000D01*
X325999D01*
X182998Y184004D02*
X171002D01*
Y190003D01*
X173001Y192002D01*
X177000D01*
X178999Y190003D01*
Y184004D01*
Y188003D02*
X182998Y192002D01*
Y201999D02*
X171002D01*
X177000Y196001D01*
Y203998D01*
X182998Y207997D02*
Y211996D01*
Y209996D01*
X171002D01*
X173001Y207997D01*
X133005Y241002D02*
Y252998D01*
X139003D01*
X141002Y250999D01*
Y247000D01*
X139003Y245001D01*
X133005D01*
X137004D02*
X141002Y241002D01*
X145001D02*
X149000D01*
X147000D01*
Y252998D01*
X145001Y250999D01*
X160996Y241002D02*
Y252998D01*
X154998Y247000D01*
X162995D01*
X131003Y283998D02*
Y272002D01*
X137001D01*
X139000Y274001D01*
Y281999D01*
X137001Y283998D01*
X131003D01*
X142999Y272002D02*
X146997D01*
X144998D01*
Y283998D01*
X142999Y281999D01*
X104002Y318999D02*
X102003Y320998D01*
X98004D01*
X96005Y318999D01*
Y311001D01*
X98004Y309002D01*
X102003D01*
X104002Y311001D01*
X108001Y309002D02*
X112000D01*
X110000D01*
Y320998D01*
X108001Y318999D01*
X125995Y309002D02*
X117998D01*
X125995Y316999D01*
Y318999D01*
X123996Y320998D01*
X119997D01*
X117998Y318999D01*
X86002Y351003D02*
X97998D01*
Y359001D01*
X86002Y362999D02*
Y370997D01*
X88001D01*
X95999Y362999D01*
X97998D01*
X86002Y458003D02*
X97998D01*
Y466001D01*
X88001Y469999D02*
X86002Y471999D01*
Y475997D01*
X88001Y477997D01*
X90001D01*
X92000Y475997D01*
X93999Y477997D01*
X95999D01*
X97998Y475997D01*
Y471999D01*
X95999Y469999D01*
X93999D01*
X92000Y471999D01*
X90001Y469999D01*
X88001D01*
X92000Y471999D02*
Y475997D01*
X86002Y566003D02*
X97998D01*
Y574001D01*
X95999Y577999D02*
X97998Y579999D01*
Y583997D01*
X95999Y585997D01*
X88001D01*
X86002Y583997D01*
Y579999D01*
X88001Y577999D01*
X90001D01*
X92000Y579999D01*
Y585997D01*
X86002Y674005D02*
X97998D01*
Y682002D01*
Y686001D02*
Y690000D01*
Y688000D01*
X86002D01*
X88001Y686001D01*
Y695998D02*
X86002Y697997D01*
Y701996D01*
X88001Y703995D01*
X95999D01*
X97998Y701996D01*
Y697997D01*
X95999Y695998D01*
X88001D01*
X924871Y238183D02*
X922872Y240182D01*
X918873D01*
X916874Y238183D01*
Y230185D01*
X918873Y228186D01*
X922872D01*
X924871Y230185D01*
X936868Y228186D02*
X928870D01*
X936868Y236183D01*
Y238183D01*
X934868Y240182D01*
X930870D01*
X928870Y238183D01*
X948864Y240182D02*
X940866D01*
Y234184D01*
X944865Y236183D01*
X946864D01*
X948864Y234184D01*
Y230185D01*
X946864Y228186D01*
X942866D01*
X940866Y230185D01*
X233991Y836099D02*
X231992Y838098D01*
X227993D01*
X225994Y836099D01*
Y828101D01*
X227993Y826102D01*
X231992D01*
X233991Y828101D01*
X237990Y826102D02*
X241989D01*
X239989D01*
Y838098D01*
X237990Y836099D01*
X247987D02*
X249986Y838098D01*
X253985D01*
X255984Y836099D01*
Y834099D01*
X253985Y832100D01*
X251986D01*
X253985D01*
X255984Y830101D01*
Y828101D01*
X253985Y826102D01*
X249986D01*
X247987Y828101D01*
D11*
X675500Y880000D02*
G03*
X675500Y880000I-2000J0D01*
G01*
D12*
X117000Y356500D02*
X122000D01*
X119500Y354000D02*
Y359000D01*
X235500Y421500D02*
X240500D01*
X238000Y419000D02*
Y424000D01*
X514000Y583500D02*
X519000D01*
X516500Y581000D02*
Y586000D01*
X1729500Y623000D02*
Y628000D01*
X1727000Y625500D02*
X1732000D01*
X988000Y185500D02*
X993000D01*
X990500Y183000D02*
Y188000D01*
X297000Y783500D02*
X302000D01*
X299500Y781000D02*
Y786000D01*
D13*
X165000Y-225000D02*
Y-205006D01*
X174997D01*
X178329Y-208339D01*
Y-215003D01*
X174997Y-218335D01*
X165000D01*
X194990Y-205006D02*
X188326D01*
X184994Y-208339D01*
Y-221668D01*
X188326Y-225000D01*
X194990D01*
X198323Y-221668D01*
Y-208339D01*
X194990Y-205006D01*
X204987D02*
Y-225000D01*
X211652Y-218335D01*
X218316Y-225000D01*
Y-205006D01*
X238310D02*
X224981D01*
Y-225000D01*
X238310D01*
X224981Y-215003D02*
X231645D01*
X244974Y-225000D02*
Y-205006D01*
X254971D01*
X258303Y-208339D01*
Y-215003D01*
X254971Y-218335D01*
X244974D01*
X251639D02*
X258303Y-225000D01*
X294958Y-205006D02*
X288294D01*
X284961Y-208339D01*
Y-221668D01*
X288294Y-225000D01*
X294958D01*
X298290Y-221668D01*
Y-208339D01*
X294958Y-205006D01*
X304955Y-225000D02*
Y-205006D01*
X318284Y-225000D01*
Y-205006D01*
X1547500D02*
Y-225000D01*
X1557497D01*
X1560829Y-221668D01*
Y-218335D01*
X1557497Y-215003D01*
X1547500D01*
X1557497D01*
X1560829Y-211671D01*
Y-208339D01*
X1557497Y-205006D01*
X1547500D01*
X1567494Y-225000D02*
Y-205006D01*
X1577490D01*
X1580823Y-208339D01*
Y-215003D01*
X1577490Y-218335D01*
X1567494D01*
X1574158D02*
X1580823Y-225000D01*
X1587487Y-205006D02*
X1594152D01*
X1590819D01*
Y-225000D01*
X1587487D01*
X1594152D01*
X1617477Y-208339D02*
X1614145Y-205006D01*
X1607481D01*
X1604148Y-208339D01*
Y-221668D01*
X1607481Y-225000D01*
X1614145D01*
X1617477Y-221668D01*
Y-215003D01*
X1610813D01*
X1624142Y-205006D02*
Y-225000D01*
Y-215003D01*
X1637471D01*
Y-205006D01*
Y-225000D01*
X1644135Y-205006D02*
X1657465D01*
X1650800D01*
Y-225000D01*
X1664129D02*
Y-205006D01*
X1677458Y-225000D01*
Y-205006D01*
X1697452D02*
X1684123D01*
Y-225000D01*
X1697452D01*
X1684123Y-215003D02*
X1690787D01*
X1717445Y-208339D02*
X1714113Y-205006D01*
X1707448D01*
X1704116Y-208339D01*
Y-211671D01*
X1707448Y-215003D01*
X1714113D01*
X1717445Y-218335D01*
Y-221668D01*
X1714113Y-225000D01*
X1707448D01*
X1704116Y-221668D01*
X1737439Y-208339D02*
X1734106Y-205006D01*
X1727442D01*
X1724110Y-208339D01*
Y-211671D01*
X1727442Y-215003D01*
X1734106D01*
X1737439Y-218335D01*
Y-221668D01*
X1734106Y-225000D01*
X1727442D01*
X1724110Y-221668D01*
X365000Y-225000D02*
Y-205006D01*
X374997D01*
X378329Y-208339D01*
Y-215003D01*
X374997Y-218335D01*
X365000D01*
X384994Y-205006D02*
X391658D01*
X388326D01*
Y-225000D01*
X384994D01*
X391658D01*
X401655Y-205006D02*
X414984D01*
X408319D01*
Y-225000D01*
X434977Y-208339D02*
X431645Y-205006D01*
X424981D01*
X421648Y-208339D01*
Y-221668D01*
X424981Y-225000D01*
X431645D01*
X434977Y-221668D01*
X441642Y-205006D02*
Y-225000D01*
Y-215003D01*
X454971D01*
Y-205006D01*
Y-225000D01*
X481629Y-205006D02*
X494958D01*
X488294D01*
Y-225000D01*
X501623Y-205006D02*
Y-221668D01*
X504955Y-225000D01*
X511619D01*
X514952Y-221668D01*
Y-205006D01*
X521616Y-225000D02*
Y-205006D01*
X534945Y-225000D01*
Y-205006D01*
X541610D02*
X548274D01*
X544942D01*
Y-225000D01*
X541610D01*
X548274D01*
X558271D02*
Y-205006D01*
X571600Y-225000D01*
Y-205006D01*
X591594Y-208339D02*
X588261Y-205006D01*
X581597D01*
X578265Y-208339D01*
Y-221668D01*
X581597Y-225000D01*
X588261D01*
X591594Y-221668D01*
Y-215003D01*
X584929D01*
X645000Y-205006D02*
Y-218335D01*
X651665Y-225000D01*
X658329Y-218335D01*
Y-205006D01*
X674990D02*
X668326D01*
X664994Y-208339D01*
Y-221668D01*
X668326Y-225000D01*
X674990D01*
X678323Y-221668D01*
Y-208339D01*
X674990Y-205006D01*
X684987D02*
Y-225000D01*
X698316D01*
X704981Y-205006D02*
Y-221668D01*
X708313Y-225000D01*
X714977D01*
X718310Y-221668D01*
Y-205006D01*
X724974Y-225000D02*
Y-205006D01*
X731639Y-211671D01*
X738303Y-205006D01*
Y-225000D01*
X758297Y-205006D02*
X744968D01*
Y-225000D01*
X758297D01*
X744968Y-215003D02*
X751632D01*
X784955Y-205006D02*
X798284D01*
X791619D01*
Y-225000D01*
X804949Y-205006D02*
Y-221668D01*
X808281Y-225000D01*
X814945D01*
X818278Y-221668D01*
Y-205006D01*
X824942Y-225000D02*
Y-205006D01*
X838271Y-225000D01*
Y-205006D01*
X844936D02*
X851600D01*
X848268D01*
Y-225000D01*
X844936D01*
X851600D01*
X861597D02*
Y-205006D01*
X874926Y-225000D01*
Y-205006D01*
X894919Y-208339D02*
X891587Y-205006D01*
X884923D01*
X881590Y-208339D01*
Y-221668D01*
X884923Y-225000D01*
X891587D01*
X894919Y-221668D01*
Y-215003D01*
X888255D01*
X997500Y-205006D02*
Y-225000D01*
X1004165Y-218335D01*
X1010829Y-225000D01*
Y-205006D01*
X1017494Y-225000D02*
Y-211671D01*
X1024158Y-205006D01*
X1030823Y-211671D01*
Y-225000D01*
Y-215003D01*
X1017494D01*
X1037487Y-205006D02*
Y-218335D01*
X1044152Y-225000D01*
X1050816Y-218335D01*
Y-205006D01*
X1070810D02*
X1057481D01*
Y-225000D01*
X1070810D01*
X1057481Y-215003D02*
X1064145D01*
X1090803Y-205006D02*
X1077474D01*
Y-215003D01*
X1084139D01*
X1077474D01*
Y-225000D01*
X1107465Y-205006D02*
X1100800D01*
X1097468Y-208339D01*
Y-221668D01*
X1100800Y-225000D01*
X1107465D01*
X1110797Y-221668D01*
Y-208339D01*
X1107465Y-205006D01*
X1117461Y-225000D02*
Y-205006D01*
X1127458D01*
X1130790Y-208339D01*
Y-215003D01*
X1127458Y-218335D01*
X1117461D01*
X1124126D02*
X1130790Y-225000D01*
X1137455D02*
Y-205006D01*
X1144119Y-211671D01*
X1150784Y-205006D01*
Y-225000D01*
X1282500Y-205006D02*
Y-225000D01*
X1292497D01*
X1295829Y-221668D01*
Y-218335D01*
X1292497Y-215003D01*
X1282500D01*
X1292497D01*
X1295829Y-211671D01*
Y-208339D01*
X1292497Y-205006D01*
X1282500D01*
X1302494Y-225000D02*
Y-205006D01*
X1312490D01*
X1315823Y-208339D01*
Y-215003D01*
X1312490Y-218335D01*
X1302494D01*
X1309158D02*
X1315823Y-225000D01*
X1322487Y-205006D02*
X1329152D01*
X1325819D01*
Y-225000D01*
X1322487D01*
X1329152D01*
X1352477Y-208339D02*
X1349145Y-205006D01*
X1342481D01*
X1339148Y-208339D01*
Y-221668D01*
X1342481Y-225000D01*
X1349145D01*
X1352477Y-221668D01*
Y-215003D01*
X1345813D01*
X1359142Y-205006D02*
Y-225000D01*
Y-215003D01*
X1372471D01*
Y-205006D01*
Y-225000D01*
X1379135Y-205006D02*
X1392465D01*
X1385800D01*
Y-225000D01*
X1399129D02*
Y-205006D01*
X1412458Y-225000D01*
Y-205006D01*
X1432452D02*
X1419123D01*
Y-225000D01*
X1432452D01*
X1419123Y-215003D02*
X1425787D01*
X1452445Y-208339D02*
X1449113Y-205006D01*
X1442448D01*
X1439116Y-208339D01*
Y-211671D01*
X1442448Y-215003D01*
X1449113D01*
X1452445Y-218335D01*
Y-221668D01*
X1449113Y-225000D01*
X1442448D01*
X1439116Y-221668D01*
X1472439Y-208339D02*
X1469106Y-205006D01*
X1462442D01*
X1459110Y-208339D01*
Y-211671D01*
X1462442Y-215003D01*
X1469106D01*
X1472439Y-218335D01*
Y-221668D01*
X1469106Y-225000D01*
X1462442D01*
X1459110Y-221668D01*
D14*
X722260Y179697D02*
X712103Y169540D01*
X696860Y169540D02*
X686703D01*
X681625Y174618D01*
X686703Y179697D01*
X696860D01*
X689242D01*
Y169540D01*
X681625Y184775D02*
X694321D01*
X696860Y187314D01*
Y192393D01*
X694321Y194932D01*
X681625D01*
Y200010D02*
X696860D01*
Y207628D01*
X694321Y210167D01*
X684164D01*
X681625Y207628D01*
Y200010D01*
Y215245D02*
Y220324D01*
Y217784D01*
X696860D01*
Y215245D01*
Y220324D01*
X681625Y235559D02*
Y230480D01*
X684164Y227941D01*
X694321D01*
X696860Y230480D01*
Y235559D01*
X694321Y238098D01*
X684164D01*
X681625Y235559D01*
X663842Y169540D02*
Y179697D01*
X658764Y174618D02*
X668921D01*
X671460Y184775D02*
Y189853D01*
Y187314D01*
X656225D01*
X658764Y184775D01*
X671460Y207628D02*
Y197471D01*
X661303Y207628D01*
X658764D01*
X656225Y205089D01*
Y200010D01*
X658764Y197471D01*
X656225Y212706D02*
X666382D01*
X671460Y217784D01*
X666382Y222863D01*
X656225D01*
X638442Y169540D02*
Y179697D01*
X646060Y184775D02*
Y189853D01*
Y187314D01*
X630825D01*
X633364Y184775D01*
X646060Y207628D02*
Y197471D01*
X635903Y207628D01*
X633364D01*
X630825Y205089D01*
Y200010D01*
X633364Y197471D01*
X630825Y212706D02*
X640982D01*
X646060Y217784D01*
X640982Y222863D01*
X630825D01*
X620660Y169540D02*
X610503D01*
X605425Y174618D01*
X610503Y179697D01*
X620660D01*
X613042D01*
Y169540D01*
X620660Y184775D02*
X605425D01*
X610503Y189853D01*
X605425Y194932D01*
X620660D01*
Y200010D02*
X605425D01*
Y207628D01*
X607964Y210167D01*
X613042D01*
X615582Y207628D01*
Y200010D01*
X605425Y238098D02*
Y233019D01*
X607964Y230480D01*
X618121D01*
X620660Y233019D01*
Y238098D01*
X618121Y240637D01*
X607964D01*
X605425Y238098D01*
Y245715D02*
X618121D01*
X620660Y248255D01*
Y253333D01*
X618121Y255872D01*
X605425D01*
Y260950D02*
Y271107D01*
Y266029D01*
X620660D01*
X595260Y169540D02*
X585103D01*
X580025Y174618D01*
X585103Y179697D01*
X595260D01*
X587642D01*
Y169540D01*
X595260Y184775D02*
X580025D01*
X585103Y189853D01*
X580025Y194932D01*
X595260D01*
Y200010D02*
X580025D01*
Y207628D01*
X582564Y210167D01*
X587642D01*
X590182Y207628D01*
Y200010D01*
X580025Y230480D02*
Y235559D01*
Y233019D01*
X595260D01*
Y230480D01*
Y235559D01*
Y243176D02*
X580025D01*
X595260Y253333D01*
X580025D01*
X554625Y169540D02*
X564782D01*
X569860Y174618D01*
X564782Y179697D01*
X554625D01*
X557164Y194932D02*
X554625Y192393D01*
Y187314D01*
X557164Y184775D01*
X567321D01*
X569860Y187314D01*
Y192393D01*
X567321Y194932D01*
X569860Y200010D02*
X559703D01*
X554625Y205089D01*
X559703Y210167D01*
X569860D01*
X562242D01*
Y200010D01*
X554625Y238098D02*
Y233019D01*
X557164Y230480D01*
X567321D01*
X569860Y233019D01*
Y238098D01*
X567321Y240637D01*
X557164D01*
X554625Y238098D01*
Y245715D02*
X567321D01*
X569860Y248255D01*
Y253333D01*
X567321Y255872D01*
X554625D01*
Y260950D02*
Y271107D01*
Y266029D01*
X569860D01*
X531764Y179697D02*
X529225Y177157D01*
Y172079D01*
X531764Y169540D01*
X541921D01*
X544460Y172079D01*
Y177157D01*
X541921Y179697D01*
X536842D01*
Y174618D01*
X544460Y184775D02*
X529225D01*
X544460Y194932D01*
X529225D01*
Y200010D02*
X544460D01*
Y207628D01*
X541921Y210167D01*
X531764D01*
X529225Y207628D01*
Y200010D01*
X472540Y970540D02*
Y980697D01*
X477618Y985775D01*
X482697Y980697D01*
Y970540D01*
Y978158D01*
X472540D01*
X497932Y983236D02*
X495393Y985775D01*
X490314D01*
X487775Y983236D01*
Y973079D01*
X490314Y970540D01*
X495393D01*
X497932Y973079D01*
X503010Y970540D02*
X513167Y980697D01*
X518245Y970540D02*
Y980697D01*
X523324Y985775D01*
X528402Y980697D01*
Y970540D01*
Y978158D01*
X518245D01*
X543637Y983236D02*
X541098Y985775D01*
X536020D01*
X533480Y983236D01*
Y973079D01*
X536020Y970540D01*
X541098D01*
X543637Y973079D01*
X563950Y978158D02*
X574107D01*
X569029Y983236D02*
Y973079D01*
X579185Y970540D02*
X584264D01*
X581725D01*
Y985775D01*
X579185Y983236D01*
X602038Y985775D02*
X591881D01*
Y978158D01*
X596960Y980697D01*
X599499D01*
X602038Y978158D01*
Y973079D01*
X599499Y970540D01*
X594421D01*
X591881Y973079D01*
X607117Y985775D02*
Y975618D01*
X612195Y970540D01*
X617273Y975618D01*
Y985775D01*
X1235775Y962342D02*
Y967421D01*
X1233236Y969960D01*
X1223079D01*
X1220540Y967421D01*
Y962342D01*
X1223079Y959803D01*
X1233236D01*
X1235775Y962342D01*
Y954725D02*
X1223079D01*
X1220540Y952186D01*
Y947107D01*
X1223079Y944568D01*
X1235775D01*
Y939490D02*
Y929333D01*
Y934411D01*
X1220540D01*
Y924255D02*
X1235775D01*
Y916637D01*
X1233236Y914098D01*
X1228158D01*
X1225618Y916637D01*
Y924255D01*
X1235775Y909020D02*
X1223079D01*
X1220540Y906480D01*
Y901402D01*
X1223079Y898863D01*
X1235775D01*
Y893785D02*
Y883628D01*
Y888706D01*
X1220540D01*
X1290540Y118775D02*
Y103540D01*
X1298158D01*
X1300697Y106079D01*
Y108618D01*
X1298158Y111158D01*
X1290540D01*
X1298158D01*
X1300697Y113697D01*
Y116236D01*
X1298158Y118775D01*
X1290540D01*
X1305775Y103540D02*
Y118775D01*
X1313393D01*
X1315932Y116236D01*
Y111158D01*
X1313393Y108618D01*
X1305775D01*
X1310853D02*
X1315932Y103540D01*
X1321010Y118775D02*
X1326089D01*
X1323549D01*
Y103540D01*
X1321010D01*
X1326089D01*
X1343863Y116236D02*
X1341324Y118775D01*
X1336245D01*
X1333706Y116236D01*
Y106079D01*
X1336245Y103540D01*
X1341324D01*
X1343863Y106079D01*
Y111158D01*
X1338784D01*
X1348941Y118775D02*
Y103540D01*
Y111158D01*
X1359098D01*
Y118775D01*
Y103540D01*
X1364176Y118775D02*
X1374333D01*
X1369254D01*
Y103540D01*
X1379411D02*
Y118775D01*
X1389568Y103540D01*
Y118775D01*
X1404803D02*
X1394646D01*
Y103540D01*
X1404803D01*
X1394646Y111158D02*
X1399725D01*
X1420038Y116236D02*
X1417499Y118775D01*
X1412421D01*
X1409881Y116236D01*
Y113697D01*
X1412421Y111158D01*
X1417499D01*
X1420038Y108618D01*
Y106079D01*
X1417499Y103540D01*
X1412421D01*
X1409881Y106079D01*
X1435273Y116236D02*
X1432734Y118775D01*
X1427656D01*
X1425116Y116236D01*
Y113697D01*
X1427656Y111158D01*
X1432734D01*
X1435273Y108618D01*
Y106079D01*
X1432734Y103540D01*
X1427656D01*
X1425116Y106079D01*
X990540Y118775D02*
Y103540D01*
X995618Y108618D01*
X1000697Y103540D01*
Y118775D01*
X1005775Y103540D02*
Y113697D01*
X1010853Y118775D01*
X1015932Y113697D01*
Y103540D01*
Y111158D01*
X1005775D01*
X1021010Y118775D02*
Y108618D01*
X1026088Y103540D01*
X1031167Y108618D01*
Y118775D01*
X1046402D02*
X1036245D01*
Y103540D01*
X1046402D01*
X1036245Y111158D02*
X1041323D01*
X1061637Y118775D02*
X1051480D01*
Y111158D01*
X1056559D01*
X1051480D01*
Y103540D01*
X1074333Y118775D02*
X1069255D01*
X1066715Y116236D01*
Y106079D01*
X1069255Y103540D01*
X1074333D01*
X1076872Y106079D01*
Y116236D01*
X1074333Y118775D01*
X1081950Y103540D02*
Y118775D01*
X1089568D01*
X1092107Y116236D01*
Y111158D01*
X1089568Y108618D01*
X1081950D01*
X1087029D02*
X1092107Y103540D01*
X1097186D02*
Y118775D01*
X1102264Y113697D01*
X1107342Y118775D01*
Y103540D01*
X690540Y118775D02*
Y108618D01*
X695618Y103540D01*
X700697Y108618D01*
Y118775D01*
X713393D02*
X708314D01*
X705775Y116236D01*
Y106079D01*
X708314Y103540D01*
X713393D01*
X715932Y106079D01*
Y116236D01*
X713393Y118775D01*
X721010D02*
Y103540D01*
X731167D01*
X736245Y118775D02*
Y106079D01*
X738784Y103540D01*
X743863D01*
X746402Y106079D01*
Y118775D01*
X751480Y103540D02*
Y118775D01*
X756559Y113697D01*
X761637Y118775D01*
Y103540D01*
X776872Y118775D02*
X766715D01*
Y103540D01*
X776872D01*
X766715Y111158D02*
X771794D01*
X797186Y118775D02*
X807342D01*
X802264D01*
Y103540D01*
X812421Y118775D02*
Y106079D01*
X814960Y103540D01*
X820038D01*
X822577Y106079D01*
Y118775D01*
X827656Y103540D02*
Y118775D01*
X837812Y103540D01*
Y118775D01*
X842891D02*
X847969D01*
X845430D01*
Y103540D01*
X842891D01*
X847969D01*
X855587D02*
Y118775D01*
X865743Y103540D01*
Y118775D01*
X880978Y116236D02*
X878439Y118775D01*
X873361D01*
X870822Y116236D01*
Y106079D01*
X873361Y103540D01*
X878439D01*
X880978Y106079D01*
Y111158D01*
X875900D01*
X390540Y103540D02*
Y118775D01*
X398158D01*
X400697Y116236D01*
Y111158D01*
X398158Y108618D01*
X390540D01*
X405775Y118775D02*
X410853D01*
X408314D01*
Y103540D01*
X405775D01*
X410853D01*
X418471Y118775D02*
X428628D01*
X423549D01*
Y103540D01*
X443863Y116236D02*
X441324Y118775D01*
X436245D01*
X433706Y116236D01*
Y106079D01*
X436245Y103540D01*
X441324D01*
X443863Y106079D01*
X448941Y118775D02*
Y103540D01*
Y111158D01*
X459098D01*
Y118775D01*
Y103540D01*
X479411Y118775D02*
X489568D01*
X484490D01*
Y103540D01*
X494646Y118775D02*
Y106079D01*
X497186Y103540D01*
X502264D01*
X504803Y106079D01*
Y118775D01*
X509881Y103540D02*
Y118775D01*
X520038Y103540D01*
Y118775D01*
X525117D02*
X530195D01*
X527656D01*
Y103540D01*
X525117D01*
X530195D01*
X537812D02*
Y118775D01*
X547969Y103540D01*
Y118775D01*
X563204Y116236D02*
X560665Y118775D01*
X555587D01*
X553047Y116236D01*
Y106079D01*
X555587Y103540D01*
X560665D01*
X563204Y106079D01*
Y111158D01*
X558126D01*
X921540Y968540D02*
Y983775D01*
X929157D01*
X931697Y981236D01*
Y976158D01*
X929157Y973618D01*
X921540D01*
X944393Y983775D02*
X939314D01*
X936775Y981236D01*
Y971079D01*
X939314Y968540D01*
X944393D01*
X946932Y971079D01*
Y981236D01*
X944393Y983775D01*
X952010D02*
Y968540D01*
X957088Y973618D01*
X962167Y968540D01*
Y983775D01*
X977402D02*
X967245D01*
Y968540D01*
X977402D01*
X967245Y976158D02*
X972324D01*
X982480Y968540D02*
Y983775D01*
X990098D01*
X992637Y981236D01*
Y976158D01*
X990098Y973618D01*
X982480D01*
X987559D02*
X992637Y968540D01*
X1023107Y981236D02*
X1020568Y983775D01*
X1015490D01*
X1012950Y981236D01*
Y978697D01*
X1015490Y976158D01*
X1020568D01*
X1023107Y973618D01*
Y971079D01*
X1020568Y968540D01*
X1015490D01*
X1012950Y971079D01*
X1028186Y983775D02*
Y971079D01*
X1030725Y968540D01*
X1035803D01*
X1038342Y971079D01*
Y983775D01*
X1043421Y968540D02*
Y983775D01*
X1051038D01*
X1053577Y981236D01*
Y976158D01*
X1051038Y973618D01*
X1043421D01*
X1058656Y968540D02*
Y983775D01*
X1066273D01*
X1068812Y981236D01*
Y976158D01*
X1066273Y973618D01*
X1058656D01*
X1073891Y983775D02*
Y968540D01*
X1084047D01*
X1089126Y983775D02*
Y981236D01*
X1094204Y976158D01*
X1099283Y981236D01*
Y983775D01*
X1094204Y976158D02*
Y968540D01*
X1744225Y92540D02*
X1759460D01*
X1751842D01*
Y102697D01*
X1744225D01*
X1759460D01*
X1744225Y117932D02*
Y107775D01*
X1759460D01*
Y117932D01*
X1751842Y107775D02*
Y112853D01*
X1759460Y123010D02*
X1749303D01*
X1744225Y128089D01*
X1749303Y133167D01*
X1759460D01*
X1751842D01*
Y123010D01*
X1744225Y138245D02*
X1759460D01*
Y145863D01*
X1756921Y148402D01*
X1746764D01*
X1744225Y145863D01*
Y138245D01*
X1759460Y153480D02*
X1744225D01*
Y161098D01*
X1746764Y163637D01*
X1751842D01*
X1754382Y161098D01*
Y153480D01*
X1744225Y168715D02*
X1759460D01*
X1751842D01*
Y178872D01*
X1744225D01*
X1759460D01*
X1744225Y191568D02*
Y186490D01*
X1746764Y183950D01*
X1756921D01*
X1759460Y186490D01*
Y191568D01*
X1756921Y194107D01*
X1746764D01*
X1744225Y191568D01*
X1759460Y199186D02*
X1744225D01*
X1759460Y209342D01*
X1744225D01*
Y224577D02*
Y214421D01*
X1759460D01*
Y224577D01*
X1751842Y214421D02*
Y219499D01*
X1746764Y239812D02*
X1744225Y237273D01*
Y232195D01*
X1746764Y229656D01*
X1749303D01*
X1751842Y232195D01*
Y237273D01*
X1754382Y239812D01*
X1756921D01*
X1759460Y237273D01*
Y232195D01*
X1756921Y229656D01*
X179225Y648540D02*
X189382D01*
X194460Y653618D01*
X189382Y658697D01*
X179225D01*
Y671393D02*
Y666314D01*
X181764Y663775D01*
X191921D01*
X194460Y666314D01*
Y671393D01*
X191921Y673932D01*
X181764D01*
X179225Y671393D01*
Y679010D02*
X194460D01*
Y689167D01*
X179225Y694245D02*
X191921D01*
X194460Y696784D01*
Y701863D01*
X191921Y704402D01*
X179225D01*
X194460Y709480D02*
X179225D01*
X184303Y714559D01*
X179225Y719637D01*
X194460D01*
X179225Y734872D02*
Y724715D01*
X194460D01*
Y734872D01*
X186842Y724715D02*
Y729794D01*
X179225Y762803D02*
Y757725D01*
X181764Y755185D01*
X191921D01*
X194460Y757725D01*
Y762803D01*
X191921Y765342D01*
X181764D01*
X179225Y762803D01*
X181764Y780577D02*
X179225Y778038D01*
Y772960D01*
X181764Y770421D01*
X184303D01*
X186842Y772960D01*
Y778038D01*
X189382Y780577D01*
X191921D01*
X194460Y778038D01*
Y772960D01*
X191921Y770421D01*
X181764Y795812D02*
X179225Y793273D01*
Y788195D01*
X181764Y785656D01*
X191921D01*
X194460Y788195D01*
Y793273D01*
X191921Y795812D01*
X179225Y800891D02*
Y805969D01*
Y803430D01*
X194460D01*
Y800891D01*
Y805969D01*
X179225Y813587D02*
X194460D01*
Y823743D01*
X179225Y828822D02*
X194460D01*
Y838978D01*
Y844057D02*
X184303D01*
X179225Y849135D01*
X184303Y854213D01*
X194460D01*
X186842D01*
Y844057D01*
X179225Y859292D02*
Y869449D01*
Y864370D01*
X194460D01*
X179225Y882144D02*
Y877066D01*
X181764Y874527D01*
X191921D01*
X194460Y877066D01*
Y882144D01*
X191921Y884684D01*
X181764D01*
X179225Y882144D01*
X194460Y889762D02*
X179225D01*
Y897380D01*
X181764Y899919D01*
X186842D01*
X189382Y897380D01*
Y889762D01*
Y894840D02*
X194460Y899919D01*
X1250540Y313775D02*
Y298540D01*
X1258158D01*
X1260697Y301079D01*
Y311236D01*
X1258158Y313775D01*
X1250540D01*
X1275932D02*
X1265775D01*
Y298540D01*
X1275932D01*
X1265775Y306157D02*
X1270853D01*
X1281010Y313775D02*
X1291167D01*
X1286089D01*
Y298540D01*
X1306402Y313775D02*
X1296245D01*
Y298540D01*
X1306402D01*
X1296245Y306157D02*
X1301324D01*
X1321637Y311236D02*
X1319098Y313775D01*
X1314019D01*
X1311480Y311236D01*
Y301079D01*
X1314019Y298540D01*
X1319098D01*
X1321637Y301079D01*
X1326715Y313775D02*
X1336872D01*
X1331794D01*
Y298540D01*
X1349568Y313775D02*
X1344490D01*
X1341950Y311236D01*
Y301079D01*
X1344490Y298540D01*
X1349568D01*
X1352107Y301079D01*
Y311236D01*
X1349568Y313775D01*
X1357186Y298540D02*
Y313775D01*
X1364803D01*
X1367342Y311236D01*
Y306157D01*
X1364803Y303618D01*
X1357186D01*
X1362264D02*
X1367342Y298540D01*
X432697Y467775D02*
X422540D01*
Y460158D01*
X427618D01*
X422540D01*
Y452540D01*
X437775Y467775D02*
X442853D01*
X440314D01*
Y452540D01*
X437775D01*
X442853D01*
X450471Y467775D02*
X460628Y452540D01*
Y467775D02*
X450471Y452540D01*
X475863Y467775D02*
X465706D01*
Y452540D01*
X475863D01*
X465706Y460158D02*
X470784D01*
X480941Y467775D02*
Y452540D01*
X488559D01*
X491098Y455079D01*
Y465236D01*
X488559Y467775D01*
X480941D01*
X511411Y452540D02*
Y467775D01*
X519029D01*
X521568Y465236D01*
Y460158D01*
X519029Y457618D01*
X511411D01*
X526646Y467775D02*
X531725D01*
X529185D01*
Y452540D01*
X526646D01*
X531725D01*
X539342Y467775D02*
X549499D01*
X544421D01*
Y452540D01*
X564734Y465236D02*
X562195Y467775D01*
X557117D01*
X554577Y465236D01*
Y455079D01*
X557117Y452540D01*
X562195D01*
X564734Y455079D01*
X569812Y467775D02*
Y452540D01*
Y460158D01*
X579969D01*
Y467775D01*
Y452540D01*
X607900Y467775D02*
X602822D01*
X600283Y465236D01*
Y455079D01*
X602822Y452540D01*
X607900D01*
X610439Y455079D01*
Y465236D01*
X607900Y467775D01*
X625674Y465236D02*
X623135Y467775D01*
X618057D01*
X615518Y465236D01*
Y462697D01*
X618057Y460158D01*
X623135D01*
X625674Y457618D01*
Y455079D01*
X623135Y452540D01*
X618057D01*
X615518Y455079D01*
X640909Y465236D02*
X638370Y467775D01*
X633292D01*
X630753Y465236D01*
Y455079D01*
X633292Y452540D01*
X638370D01*
X640909Y455079D01*
X645988Y467775D02*
X651066D01*
X648527D01*
Y452540D01*
X645988D01*
X651066D01*
X658684Y467775D02*
Y452540D01*
X668840D01*
X673919Y467775D02*
Y452540D01*
X684075D01*
X689154D02*
Y462697D01*
X694232Y467775D01*
X699311Y462697D01*
Y452540D01*
Y460158D01*
X689154D01*
X704389Y467775D02*
X714546D01*
X709467D01*
Y452540D01*
X727241Y467775D02*
X722163D01*
X719624Y465236D01*
Y455079D01*
X722163Y452540D01*
X727241D01*
X729781Y455079D01*
Y465236D01*
X727241Y467775D01*
X734859Y452540D02*
Y467775D01*
X742477D01*
X745016Y465236D01*
Y460158D01*
X742477Y457618D01*
X734859D01*
X739937D02*
X745016Y452540D01*
X1487540Y730540D02*
Y745775D01*
X1495157D01*
X1497697Y743236D01*
Y738158D01*
X1495157Y735618D01*
X1487540D01*
X1502775Y745775D02*
X1507853D01*
X1505314D01*
Y730540D01*
X1502775D01*
X1507853D01*
X1515471Y745775D02*
X1525628D01*
X1520549D01*
Y730540D01*
X1540863Y743236D02*
X1538324Y745775D01*
X1533245D01*
X1530706Y743236D01*
Y733079D01*
X1533245Y730540D01*
X1538324D01*
X1540863Y733079D01*
X1545941Y745775D02*
Y730540D01*
Y738158D01*
X1556098D01*
Y745775D01*
Y730540D01*
X1584029Y745775D02*
X1578950D01*
X1576411Y743236D01*
Y733079D01*
X1578950Y730540D01*
X1584029D01*
X1586568Y733079D01*
Y743236D01*
X1584029Y745775D01*
X1601803Y743236D02*
X1599264Y745775D01*
X1594185D01*
X1591646Y743236D01*
Y740697D01*
X1594185Y738158D01*
X1599264D01*
X1601803Y735618D01*
Y733079D01*
X1599264Y730540D01*
X1594185D01*
X1591646Y733079D01*
X1617038Y743236D02*
X1614499Y745775D01*
X1609421D01*
X1606881Y743236D01*
Y733079D01*
X1609421Y730540D01*
X1614499D01*
X1617038Y733079D01*
X1622117Y745775D02*
X1627195D01*
X1624656D01*
Y730540D01*
X1622117D01*
X1627195D01*
X1634812Y745775D02*
Y730540D01*
X1644969D01*
X1650047Y745775D02*
Y730540D01*
X1660204D01*
X1665282D02*
Y740697D01*
X1670361Y745775D01*
X1675439Y740697D01*
Y730540D01*
Y738158D01*
X1665282D01*
X1680518Y745775D02*
X1690674D01*
X1685596D01*
Y730540D01*
X1703370Y745775D02*
X1698292D01*
X1695753Y743236D01*
Y733079D01*
X1698292Y730540D01*
X1703370D01*
X1705909Y733079D01*
Y743236D01*
X1703370Y745775D01*
X1710988Y730540D02*
Y745775D01*
X1718605D01*
X1721144Y743236D01*
Y738158D01*
X1718605Y735618D01*
X1710988D01*
X1716066D02*
X1721144Y730540D01*
D15*
X284658Y330487D02*
X258000D01*
Y290500D01*
X284658D01*
X258000Y310494D02*
X271329D01*
X297987Y290500D02*
Y330487D01*
X311316Y317158D01*
X324645Y330487D01*
Y290500D01*
X377961Y330487D02*
X404619D01*
X391290D01*
Y290500D01*
X417948Y330487D02*
Y290500D01*
Y310494D01*
X444606D01*
Y330487D01*
Y290500D01*
X484593Y330487D02*
X457935D01*
Y290500D01*
X484593D01*
X457935Y310494D02*
X471264D01*
X497922Y290500D02*
Y330487D01*
X517916D01*
X524580Y323823D01*
Y310494D01*
X517916Y303829D01*
X497922D01*
X511251D02*
X524580Y290500D01*
X564567Y330487D02*
X537910D01*
Y290500D01*
X564567D01*
X537910Y310494D02*
X551239D01*
X577896Y290500D02*
Y330487D01*
X591226Y317158D01*
X604555Y330487D01*
Y290500D01*
X617884Y330487D02*
X631213D01*
X624548D01*
Y290500D01*
X617884D01*
X631213D01*
X651206D02*
Y330487D01*
X677864Y290500D01*
Y330487D01*
D16*
X132003Y426000D02*
D03*
X225499Y352001D02*
D03*
X503995Y514000D02*
D03*
D17*
X854999Y880001D02*
D03*
X785001Y844999D02*
D03*
D18*
X1660000Y638000D02*
D03*
X921000Y198002D02*
D03*
X229997Y796001D02*
D03*
D19*
X1492499Y357449D02*
D03*
D20*
X1343876Y459001D02*
D03*
D21*
X895001Y443124D02*
D03*
X100500Y277624D02*
D03*
M02*
