G04*
G04 #@! TF.GenerationSoftware,Altium Limited,Altium Designer,24.4.1 (13)*
G04*
G04 Layer_Color=8388736*
%FSLAX44Y44*%
%MOMM*%
G71*
G04*
G04 #@! TF.SameCoordinates,B5B0D8E5-B161-4E7D-91E4-E0B691D99E8F*
G04*
G04*
G04 #@! TF.FilePolarity,Negative*
G04*
G01*
G75*
%ADD23R,2.0032X0.9032*%
%ADD24R,1.8032X1.8032*%
%ADD25C,1.8032*%
%ADD26C,1.7032*%
%ADD27C,1.4032*%
%ADD28O,5.2032X2.7032*%
%ADD29O,4.7032X2.4532*%
%ADD30O,2.4532X4.7032*%
%ADD31C,2.4532*%
%ADD32C,5.7032*%
%ADD33R,1.4032X1.4032*%
%ADD34C,3.2032*%
%ADD35C,5.2032*%
%ADD36C,0.8032*%
D23*
X1039500Y411650D02*
D03*
X1095500D02*
D03*
X1039500Y398950D02*
D03*
X1095500D02*
D03*
X1039500Y373550D02*
D03*
X1095500D02*
D03*
X1039500Y386250D02*
D03*
X1095500D02*
D03*
X1039500Y437050D02*
D03*
X1095500D02*
D03*
X1039500Y424350D02*
D03*
X1095500D02*
D03*
X1039500Y462450D02*
D03*
X1095500D02*
D03*
X1039500Y449750D02*
D03*
X1095500D02*
D03*
D24*
X536100Y150000D02*
D03*
D25*
X561500D02*
D03*
X586900D02*
D03*
X612300D02*
D03*
X637700D02*
D03*
X663100D02*
D03*
X688500D02*
D03*
X713900D02*
D03*
D26*
X1717000Y561000D02*
D03*
Y596000D02*
D03*
Y526000D02*
D03*
X1652000Y596000D02*
D03*
Y526000D02*
D03*
X287000Y719000D02*
D03*
Y754000D02*
D03*
Y684000D02*
D03*
X222000Y754000D02*
D03*
Y684000D02*
D03*
X581000Y571000D02*
D03*
X546000D02*
D03*
X616000D02*
D03*
X546000Y506000D02*
D03*
X616000D02*
D03*
X825400Y960000D02*
D03*
X774600D02*
D03*
X825400Y909980D02*
D03*
X774600D02*
D03*
X800000D02*
D03*
X871000Y880000D02*
D03*
X769000D02*
D03*
Y845000D02*
D03*
X871000D02*
D03*
X892000Y640500D02*
D03*
Y715500D02*
D03*
X1097000D02*
D03*
Y640500D02*
D03*
X1770000Y715000D02*
D03*
X1820000D02*
D03*
Y607500D02*
D03*
X1770000D02*
D03*
X1820000Y500000D02*
D03*
X1770000D02*
D03*
Y392500D02*
D03*
X1820000D02*
D03*
X224600Y65000D02*
D03*
X275400D02*
D03*
X55000Y417500D02*
D03*
Y367500D02*
D03*
Y525000D02*
D03*
Y475000D02*
D03*
Y632500D02*
D03*
Y582500D02*
D03*
Y740000D02*
D03*
Y690000D02*
D03*
D27*
X345000Y513000D02*
D03*
Y563000D02*
D03*
X299000D02*
D03*
Y513000D02*
D03*
X253000D02*
D03*
Y563000D02*
D03*
X220000Y447000D02*
D03*
X118000D02*
D03*
X220000Y477000D02*
D03*
X118000D02*
D03*
X220000Y507000D02*
D03*
X118000D02*
D03*
Y537000D02*
D03*
X220000D02*
D03*
Y567000D02*
D03*
X118000D02*
D03*
X169000Y600000D02*
D03*
X194400D02*
D03*
X143600D02*
D03*
X132000Y364000D02*
D03*
Y414000D02*
D03*
X225500D02*
D03*
Y364000D02*
D03*
X258000Y360000D02*
D03*
X360000D02*
D03*
X258000Y389000D02*
D03*
X360000D02*
D03*
X258000Y418000D02*
D03*
X360000D02*
D03*
X258000Y447000D02*
D03*
X360000D02*
D03*
X242000Y623400D02*
D03*
Y648800D02*
D03*
Y598000D02*
D03*
X292000Y623400D02*
D03*
Y648800D02*
D03*
Y598000D02*
D03*
X355000Y812000D02*
D03*
X457000D02*
D03*
X355000Y841000D02*
D03*
X457000D02*
D03*
X355000Y870000D02*
D03*
X457000D02*
D03*
X355000Y899000D02*
D03*
X457000D02*
D03*
X476000Y812000D02*
D03*
X578000D02*
D03*
X398000Y774000D02*
D03*
X448000D02*
D03*
X356000Y779000D02*
D03*
Y729000D02*
D03*
X423000Y732000D02*
D03*
X397600D02*
D03*
X448400D02*
D03*
X325000Y693000D02*
D03*
Y591000D02*
D03*
X398000Y677000D02*
D03*
X448000D02*
D03*
X489000Y639000D02*
D03*
X387000D02*
D03*
X489000Y610000D02*
D03*
X387000D02*
D03*
X537000Y779000D02*
D03*
Y729000D02*
D03*
X490000Y779000D02*
D03*
Y729000D02*
D03*
X629000Y668000D02*
D03*
Y642600D02*
D03*
Y693400D02*
D03*
X579000Y668000D02*
D03*
Y642600D02*
D03*
Y693400D02*
D03*
X537000Y642000D02*
D03*
Y692000D02*
D03*
X523000Y609000D02*
D03*
X625000D02*
D03*
X504000Y576000D02*
D03*
Y526000D02*
D03*
X649000Y616000D02*
D03*
Y514000D02*
D03*
X630000Y720000D02*
D03*
Y822000D02*
D03*
X601000D02*
D03*
Y720000D02*
D03*
X800000Y805000D02*
D03*
X750000D02*
D03*
X890000D02*
D03*
X840000D02*
D03*
X968000Y941000D02*
D03*
Y891000D02*
D03*
X1028000D02*
D03*
Y941000D02*
D03*
X1018000Y831000D02*
D03*
Y805600D02*
D03*
Y856400D02*
D03*
X978000Y831000D02*
D03*
Y856400D02*
D03*
Y805600D02*
D03*
X1241000Y625000D02*
D03*
X1343000D02*
D03*
Y596000D02*
D03*
X1241000D02*
D03*
X1265000Y558000D02*
D03*
X1315000D02*
D03*
X1343000Y521000D02*
D03*
X1241000D02*
D03*
X1602000Y507000D02*
D03*
X1552000D02*
D03*
X1615000Y573000D02*
D03*
Y598400D02*
D03*
Y547600D02*
D03*
X1565000Y573000D02*
D03*
Y598400D02*
D03*
Y547600D02*
D03*
X1722000Y638000D02*
D03*
X1672000D02*
D03*
X1543000Y630000D02*
D03*
X1645000D02*
D03*
X1520000Y573000D02*
D03*
Y675000D02*
D03*
X1491000Y573000D02*
D03*
Y675000D02*
D03*
X1698000Y395000D02*
D03*
Y497000D02*
D03*
X1727000Y348000D02*
D03*
Y450000D02*
D03*
X1660000Y454000D02*
D03*
Y404000D02*
D03*
X1644000Y362000D02*
D03*
X1694000D02*
D03*
X1587500Y255000D02*
D03*
Y357000D02*
D03*
X1557500Y255000D02*
D03*
Y357000D02*
D03*
X1467500Y235000D02*
D03*
X1517500D02*
D03*
X1452500Y325400D02*
D03*
Y300000D02*
D03*
Y274600D02*
D03*
X1532500Y350800D02*
D03*
Y325400D02*
D03*
Y300000D02*
D03*
Y274600D02*
D03*
X1553500Y382500D02*
D03*
X1451500D02*
D03*
Y412500D02*
D03*
X1553500D02*
D03*
X1344000Y475000D02*
D03*
Y373000D02*
D03*
X1315000Y475000D02*
D03*
Y373000D02*
D03*
X1286000Y475000D02*
D03*
Y373000D02*
D03*
X1249000Y451000D02*
D03*
Y401000D02*
D03*
X1043000Y342000D02*
D03*
X1093000D02*
D03*
X947000Y472000D02*
D03*
Y522000D02*
D03*
X809000Y501000D02*
D03*
X911000D02*
D03*
X809000Y472000D02*
D03*
X911000D02*
D03*
Y443000D02*
D03*
X809000D02*
D03*
Y414000D02*
D03*
X911000D02*
D03*
X809000Y385000D02*
D03*
X911000D02*
D03*
Y356000D02*
D03*
X809000D02*
D03*
Y327000D02*
D03*
X911000D02*
D03*
X809000Y297000D02*
D03*
X911000D02*
D03*
X1076000Y284000D02*
D03*
X1178000D02*
D03*
Y255000D02*
D03*
X1076000D02*
D03*
Y226000D02*
D03*
X1178000D02*
D03*
X1076000Y197000D02*
D03*
X1178000D02*
D03*
X1120000Y159000D02*
D03*
X1170000D02*
D03*
X176000Y167000D02*
D03*
Y65000D02*
D03*
X14500Y247500D02*
D03*
X116500D02*
D03*
Y277500D02*
D03*
X14500D02*
D03*
X20000Y315000D02*
D03*
X70000D02*
D03*
X933000Y198000D02*
D03*
X983000D02*
D03*
X242000Y796000D02*
D03*
X292000D02*
D03*
D28*
X673500Y860000D02*
D03*
D29*
Y920000D02*
D03*
D30*
X626500Y890000D02*
D03*
D31*
X1421500Y952500D02*
D03*
Y889500D02*
D03*
Y826500D02*
D03*
X1258500D02*
D03*
Y889500D02*
D03*
Y952500D02*
D03*
X1558500Y47000D02*
D03*
Y110000D02*
D03*
Y173000D02*
D03*
X1721500D02*
D03*
Y110000D02*
D03*
Y47000D02*
D03*
D32*
X1800000Y800000D02*
D03*
X50000D02*
D03*
D33*
X1452500Y350800D02*
D03*
D34*
X1375000Y40000D02*
D03*
X1425000D02*
D03*
X1325000D02*
D03*
X1025000D02*
D03*
X1125000D02*
D03*
X1075000D02*
D03*
X775000D02*
D03*
X825000D02*
D03*
X725000D02*
D03*
X425000D02*
D03*
X525000D02*
D03*
X475000D02*
D03*
D35*
X1800000Y50000D02*
D03*
Y950000D02*
D03*
X50000D02*
D03*
Y50000D02*
D03*
D36*
X1015850Y398450D02*
D03*
X1267000Y687000D02*
D03*
X1078000Y488000D02*
D03*
X833000Y127000D02*
D03*
X1015350Y462450D02*
D03*
Y449750D02*
D03*
X1162250Y386250D02*
D03*
X1114564Y373637D02*
D03*
X1015350Y411650D02*
D03*
Y424350D02*
D03*
X1136550Y462450D02*
D03*
X1125350Y411650D02*
D03*
M02*
